<svg width="12" height="12" viewBox="0 0 12 12" fill="none" xmlns="http://www.w3.org/2000/svg">
<path d="M11.765 5.83123H11.3785L10.5705 4.23653C10.5686 4.23281 10.5666 4.22914 10.5645 4.2255C10.446 4.01942 10.2851 3.84545 10.0962 3.71215C10.1023 3.6912 10.1058 3.66911 10.1058 3.64621V3.05792C10.1058 2.51053 9.6604 2.06519 9.11301 2.06519H7.90829C7.22981 2.06519 6.56752 2.19593 5.93984 2.45374L4.71041 2.9588C4.49592 3.04692 4.37745 3.26736 4.42237 3.49488C4.42956 3.53134 4.44096 3.5658 4.45532 3.59835C4.18825 3.68594 3.94963 3.80425 3.74553 3.95219C3.2008 4.34705 2.91287 4.94218 2.91287 5.6733V5.83126H1.64069C0.926239 5.83126 0.317334 6.29045 0.0927086 6.92907C0.0736215 6.96057 0.0617744 6.99684 0.0593297 7.03574C0.020944 7.17471 0 7.32087 0 7.4719V8.56329C0 8.69309 0.105237 8.79835 0.235062 8.79835H1.27625C1.393 9.44376 1.95859 9.93495 2.63712 9.93495C3.31565 9.93495 3.88123 9.44376 3.99799 8.79835H8.02545C8.1422 9.44376 8.70779 9.93495 9.38632 9.93495C10.0648 9.93495 10.6304 9.44376 10.7472 8.79835H11.7649C11.8948 8.79835 12 8.69309 12 8.56329V6.0663C12 5.93647 11.8948 5.83123 11.765 5.83123ZM10.1541 4.45483L10.8515 5.83121H9.51812V3.94239C9.78317 4.02824 10.011 4.20919 10.1541 4.45483ZM4.88328 3.39655C4.88429 3.3959 4.88612 3.39486 4.88908 3.39364L6.11851 2.88858C6.68921 2.65413 7.2914 2.53529 7.90832 2.53529H9.11304C9.40122 2.53529 9.63565 2.76974 9.63565 3.0579V3.41113H4.89254C4.88953 3.41113 4.88751 3.41089 4.88664 3.41089C4.88647 3.41089 4.88633 3.41089 4.88626 3.41092C4.88401 3.4077 4.88255 3.40055 4.88328 3.39655ZM9.04799 3.88659V5.83123H5.89816V3.88659H9.04799ZM3.38299 5.67325C3.38299 4.23866 4.6686 3.94392 5.42803 3.89517V5.83119H3.38299V5.67325ZM3.55012 8.5615C3.54476 9.06049 3.13735 9.46485 2.63712 9.46485C2.13688 9.46485 1.72949 9.06049 1.72413 8.5615C1.7195 8.06103 2.13575 7.63837 2.63712 7.63837C3.14036 7.63837 3.54979 8.04752 3.55033 8.55062C3.55022 8.55393 3.55012 8.55722 3.55007 8.56056C3.55007 8.56084 3.55012 8.56115 3.55012 8.5615ZM9.38639 9.4648C8.88916 9.4648 8.48382 9.06529 8.47369 8.57041C8.47494 8.69154 8.47632 8.8366 8.47336 8.56146C8.47186 8.40091 8.47256 8.46177 8.47348 8.55055C8.47461 8.17074 8.7171 7.82637 9.07282 7.69377C9.17251 7.65661 9.28007 7.63832 9.38637 7.63832C9.76928 7.63832 10.1203 7.88723 10.2478 8.24826C10.2833 8.3488 10.3004 8.4549 10.2994 8.56146C10.294 9.06047 9.88663 9.4648 9.38639 9.4648ZM11.5299 8.32823H10.7517C10.666 7.80258 10.2703 7.36358 9.75845 7.21932C9.61593 7.17915 9.4664 7.16274 9.31857 7.16994C8.81947 7.19375 8.36349 7.49749 8.14345 7.94508C8.08412 8.06576 8.04263 8.19549 8.02098 8.32823H4.00248C3.89026 7.6398 3.28114 7.14008 2.56937 7.16994C1.91975 7.19718 1.37518 7.69391 1.27178 8.32823H0.470125V7.9652H0.809202C0.939027 7.9652 1.04426 7.85994 1.04426 7.73013C1.04426 7.60033 0.939027 7.49507 0.809202 7.49507H0.470125V7.47192C0.470125 7.4085 0.475366 7.34633 0.485122 7.28561H0.809202C0.939027 7.28561 1.04426 7.18035 1.04426 7.05055C1.04426 6.92075 0.939027 6.81549 0.809202 6.81549H0.67202C0.8828 6.50544 1.23833 6.30133 1.64069 6.30133H3.14793H5.6631H9.28306H11.2341H11.5299V8.32823Z" fill="black"/>
<path d="M8.47315 8.56147C8.47318 8.56448 8.47349 8.56744 8.47358 8.57042C8.47349 8.5637 8.47339 8.55705 8.4733 8.55054C8.4733 8.5542 8.47312 8.55782 8.47315 8.56147Z" fill="black"/>
<path d="M10.8395 6.53125H9.8083C9.67848 6.53125 9.57324 6.63652 9.57324 6.76632C9.57324 6.89613 9.67848 7.0014 9.8083 7.0014H10.8395C10.9693 7.0014 11.0745 6.89613 11.0745 6.76632C11.0745 6.63649 10.9693 6.53125 10.8395 6.53125Z" fill="black"/>
<path d="M8.7301 6.53125H3.76192C3.63209 6.53125 3.52686 6.63652 3.52686 6.76632C3.52686 6.89613 3.63209 7.0014 3.76192 7.0014H8.73008C8.8599 7.0014 8.96514 6.89613 8.96514 6.76632C8.96514 6.63649 8.85992 6.53125 8.7301 6.53125Z" fill="black"/>
<path d="M3.09625 8.31641C3.07536 8.31641 3.05521 8.31939 3.03594 8.32452C2.9354 8.3512 2.86119 8.44254 2.86119 8.55147C2.86119 8.67513 2.76058 8.77574 2.63692 8.77574C2.52799 8.77574 2.43662 8.84995 2.40996 8.95049C2.40484 8.96976 2.40186 8.98991 2.40186 9.0108C2.40186 9.1406 2.50709 9.24586 2.63692 9.24586C3.01981 9.24586 3.33132 8.93436 3.33132 8.55147C3.33132 8.42164 3.22608 8.31641 3.09625 8.31641Z" fill="black"/>
<path d="M2.63727 8.32729C2.7462 8.32729 2.83757 8.25308 2.86422 8.15253C2.86932 8.13325 2.87233 8.11311 2.87233 8.09223C2.87233 7.96244 2.76709 7.85718 2.63727 7.85718C2.25438 7.85718 1.94287 8.16868 1.94287 8.55154C1.94287 8.68133 2.04811 8.78659 2.17793 8.78659C2.19883 8.78659 2.21895 8.78361 2.23825 8.77848C2.33881 8.75183 2.413 8.66046 2.413 8.55154C2.41302 8.42787 2.51363 8.32729 2.63727 8.32729Z" fill="black"/>
<path d="M9.84576 8.31641C9.82487 8.31641 9.80472 8.31939 9.78545 8.32452C9.68491 8.3512 9.6107 8.44254 9.6107 8.55147C9.6107 8.67513 9.5101 8.77574 9.38643 8.77574C9.2775 8.77574 9.18613 8.84995 9.15948 8.95049C9.15435 8.96976 9.15137 8.98991 9.15137 9.0108C9.15137 9.1406 9.2566 9.24586 9.38643 9.24586C9.76932 9.24586 10.0808 8.93436 10.0808 8.55147C10.0808 8.42164 9.97557 8.31641 9.84576 8.31641Z" fill="black"/>
<path d="M9.38629 8.32729C9.49522 8.32729 9.58659 8.25308 9.61324 8.15253C9.61835 8.13325 9.62135 8.11311 9.62135 8.09223C9.62135 7.96244 9.51612 7.85718 9.38629 7.85718C9.0034 7.85718 8.69189 8.16868 8.69189 8.55154C8.69189 8.68133 8.79713 8.78659 8.92696 8.78659C8.94785 8.78659 8.968 8.78361 8.98727 8.77848C9.08781 8.75183 9.16202 8.66046 9.16202 8.55154C9.16202 8.42787 9.26263 8.32729 9.38629 8.32729Z" fill="black"/>
<path d="M6.53291 4.66031H7.56406C7.69389 4.66031 7.79912 4.55505 7.79912 4.42525C7.79912 4.29545 7.69389 4.19019 7.56406 4.19019H6.53291C6.40309 4.19019 6.29785 4.29545 6.29785 4.42525C6.29785 4.55503 6.40309 4.66031 6.53291 4.66031Z" fill="black"/>
</svg>
