<svg width="16" height="16" viewBox="0 0 16 16" fill="none" xmlns="http://www.w3.org/2000/svg">
<path fill-rule="evenodd" clip-rule="evenodd" d="M0.521217 8.27801H0.777904V7.56298C0.777904 6.72142 1.46253 6.03679 2.30409 6.03679H3.72937C4.49362 4.30236 6.08083 3.36133 7.74692 3.36133H11.8744C12.7466 3.36133 13.5048 3.92152 13.761 4.75526L14.1936 6.16286C14.4778 6.30483 14.6982 6.55611 14.7993 6.86142H15.0966C15.3844 6.86142 15.6178 7.09476 15.6178 7.38261C15.6178 7.67045 15.3844 7.90379 15.0966 7.90379H14.8603V8.27929C15.4933 8.30661 16 8.82998 16 9.46964C16 10.1267 15.4654 10.6613 14.8084 10.6613H13.9119C13.8093 11.7689 12.8751 12.6391 11.7411 12.6391C10.6071 12.6391 9.67298 11.7689 9.57036 10.6613H5.79843C5.6958 11.7689 4.76165 12.6391 3.62765 12.6391C2.49368 12.6391 1.55953 11.7689 1.4569 10.6613H0.521186C0.233342 10.6613 0 10.4279 0 10.1401V8.79923C3.14713e-05 8.51136 0.233343 8.27801 0.521217 8.27801ZM14.8603 9.60957C14.9171 9.58845 14.9576 9.5337 14.9576 9.4696C14.9576 9.40551 14.917 9.35076 14.8603 9.3297V9.60957ZM9.32933 4.4037H7.74689C6.5648 4.4037 5.48215 5.03373 4.8928 6.03679H9.32933V4.4037ZM12.7646 5.06148C12.6437 4.66805 12.2859 4.4037 11.8744 4.4037H10.3717V6.03679H13.0643L12.7646 5.06148ZM11.7411 11.5967C12.3687 11.5967 12.8793 11.0861 12.8793 10.4585C12.8793 9.85104 12.4043 9.36123 11.8158 9.32311L11.8077 9.32255L11.7958 9.32179C11.1402 9.29048 10.603 9.8171 10.603 10.4585C10.603 11.0861 11.1135 11.5967 11.7411 11.5967ZM3.62765 11.5967C4.25524 11.5967 4.76577 11.0861 4.76577 10.4585C4.76577 9.82895 4.25252 9.32042 3.62765 9.32042C3.00234 9.32042 2.48953 9.82923 2.48953 10.4585C2.48953 11.0861 3.00009 11.5967 3.62765 11.5967ZM1.82025 9.23895C2.22109 8.64661 2.89621 8.27801 3.62762 8.27801C4.5104 8.27801 5.30465 8.81492 5.64024 9.61885H9.72851C10.0684 8.80454 10.8702 8.27801 11.7411 8.27801C12.639 8.27801 13.4239 8.82861 13.7537 9.61885H13.8178V7.23848C13.8178 7.16239 13.7642 7.09879 13.6927 7.08308L13.6857 7.0822L13.6805 7.08139L13.6772 7.08093L13.6772 7.08093C13.6711 7.08005 13.6649 7.07917 13.6585 7.07917H8.42314C8.48458 7.16467 8.52117 7.26926 8.52117 7.38261C8.52117 7.67045 8.28783 7.90379 7.99998 7.90379H6.75824C6.47039 7.90379 6.23705 7.67045 6.23705 7.38261C6.23705 7.26926 6.27364 7.16467 6.33508 7.07917H2.30409C2.03731 7.07917 1.82028 7.2962 1.82028 7.56298L1.82025 9.23895ZM3.62768 11.0894C3.27939 11.0894 2.99705 10.807 2.99705 10.4587C2.99705 10.1105 3.27939 9.82812 3.62768 9.82812C3.97596 9.82812 4.2583 10.1105 4.2583 10.4587C4.2583 10.807 3.97596 11.0894 3.62768 11.0894ZM11.1106 10.4587C11.1106 10.807 11.3929 11.0894 11.7412 11.0894C12.0895 11.0894 12.3718 10.807 12.3718 10.4587C12.3718 10.1105 12.0895 9.82812 11.7412 9.82812C11.3929 9.82812 11.1106 10.1105 11.1106 10.4587Z" fill="#464646"/>
</svg>
