<svg width="12" height="12" viewBox="0 0 12 12" fill="none" xmlns="http://www.w3.org/2000/svg">
<path d="M3.67744 0.903226H8.90324V2.12903C8.90324 2.23595 8.9899 2.32258 9.09679 2.32258C9.20368 2.32258 9.29034 2.23595 9.29034 2.12903V0.709935V0.709677V0.709419V0.193548C9.29034 0.0866323 9.20368 0 9.09679 0C8.9899 0 8.90324 0.0866323 8.90324 0.193548V0.516129H3.67744C3.57054 0.516129 3.48389 0.602761 3.48389 0.709677C3.48389 0.816594 3.57054 0.903226 3.67744 0.903226Z" fill="black"/>
<path d="M11.1611 0.516129H9.87082C9.76394 0.516129 9.67728 0.602761 9.67728 0.709677C9.67728 0.816594 9.76394 0.903226 9.87082 0.903226H10.9676V3.35484H1.03212V0.903226H2.70954V2.12903C2.70954 2.23595 2.79619 2.32258 2.90308 2.32258C3.00997 2.32258 3.09663 2.23595 3.09663 2.12903V0.193548C3.09663 0.0866323 3.00997 0 2.90308 0C2.79619 0 2.70954 0.0866323 2.70954 0.193548V0.516129H0.838568C0.731678 0.516129 0.64502 0.602761 0.64502 0.709677V10.2581C0.64502 10.365 0.731678 10.4516 0.838568 10.4516H9.3547C9.36117 10.4516 9.36763 10.4513 9.37403 10.4506C9.37883 10.4501 9.38352 10.4493 9.38819 10.4485C9.38972 10.4483 9.39126 10.4481 9.39279 10.4478C9.39831 10.4467 9.4037 10.4453 9.40904 10.4438C9.40972 10.4436 9.41044 10.4434 9.41111 10.4432C9.41648 10.4416 9.42169 10.4397 9.42683 10.4376C9.42752 10.4373 9.42822 10.4371 9.42892 10.4369C9.43379 10.4348 9.43849 10.4325 9.44316 10.4301C9.44412 10.4296 9.44512 10.4292 9.44605 10.4287C9.45031 10.4264 9.45439 10.4239 9.45844 10.4213C9.45973 10.4205 9.46107 10.4198 9.46233 10.4189C9.4661 10.4164 9.46969 10.4136 9.47325 10.4108C9.47467 10.4097 9.47617 10.4087 9.47756 10.4076C9.48192 10.404 9.48608 10.4002 9.4901 10.3963C9.49057 10.3958 9.49111 10.3954 9.49157 10.3949L11.298 8.58849C11.2984 8.5881 11.2987 8.58769 11.2991 8.5873C11.3032 8.58317 11.3071 8.57894 11.3107 8.57445C11.3118 8.57324 11.3126 8.57192 11.3136 8.57071C11.3165 8.56694 11.3194 8.56317 11.3221 8.5592C11.3228 8.55814 11.3234 8.55701 11.3241 8.55592C11.3268 8.55169 11.3295 8.54738 11.3318 8.54292C11.3323 8.54214 11.3326 8.54129 11.333 8.54049C11.3355 8.53566 11.3378 8.53081 11.3399 8.52581C11.3402 8.52524 11.3403 8.52464 11.3406 8.5241C11.3427 8.51884 11.3447 8.5135 11.3463 8.50803C11.3465 8.50738 11.3466 8.50668 11.3468 8.50604C11.3484 8.50067 11.3498 8.49525 11.3509 8.48973C11.3512 8.48815 11.3514 8.48658 11.3517 8.48501C11.3525 8.48034 11.3533 8.47572 11.3537 8.47094C11.3544 8.46454 11.3547 8.45809 11.3547 8.45161V0.709677C11.3547 0.602761 11.268 0.516129 11.1611 0.516129ZM1.03212 3.74194H10.9676V8.25806H9.3547C9.24781 8.25806 9.16115 8.3447 9.16115 8.45161V10.0645H1.03212V3.74194ZM10.6939 8.64516L9.54824 9.79081V8.64516H10.6939Z" fill="black"/>
<path d="M11.1611 11.6128H0.838568C0.731678 11.6128 0.64502 11.6994 0.64502 11.8063C0.64502 11.9133 0.731678 11.9999 0.838568 11.9999H11.1611C11.268 11.9999 11.3547 11.9133 11.3547 11.8063C11.3547 11.6994 11.268 11.6128 11.1611 11.6128Z" fill="black"/>
<path d="M11.1611 9.03223C11.0543 9.03223 10.9676 9.11886 10.9676 9.22577V10.8387H1.03212V10.7742C1.03212 10.6672 0.945458 10.5806 0.838568 10.5806C0.731678 10.5806 0.64502 10.6672 0.64502 10.7742V11.0322C0.64502 11.1391 0.731678 11.2258 0.838568 11.2258H11.1611C11.268 11.2258 11.3547 11.1391 11.3547 11.0322V9.22577C11.3547 9.11886 11.268 9.03223 11.1611 9.03223Z" fill="black"/>
</svg>
