<svg width="12" height="12" viewBox="0 0 12 12" fill="none" xmlns="http://www.w3.org/2000/svg">
<path d="M6 0C2.68641 0 0 2.6862 0 6C0 9.31359 2.68641 12 6 12C9.31359 12 12 9.31359 12 6C12 2.6862 9.31359 0 6 0ZM6 11.4C3.02241 11.4 0.6 8.97759 0.6 6C0.6 3.02241 3.02241 0.6 6 0.6C8.97759 0.6 11.4 3.02241 11.4 6C11.4 8.97759 8.97759 11.4 6 11.4Z" fill="black"/>
<path d="M5.99981 1.80005C3.6802 1.80005 1.7998 3.68044 1.7998 6.00005C1.7998 8.31967 3.6802 10.2001 5.99981 10.2001C8.31942 10.2001 10.1998 8.31967 10.1998 6.00005C10.1998 3.68044 8.31942 1.80005 5.99981 1.80005ZM6.29981 2.41526C7.66102 2.52825 8.81002 3.39947 9.31882 4.60627L6.71062 5.45368C6.60602 5.31767 6.46462 5.21368 6.29981 5.15508V2.41526ZM5.99981 5.70005C6.16521 5.70005 6.29981 5.83466 6.29981 6.00005C6.29981 6.16545 6.16521 6.30005 5.99981 6.30005C5.83441 6.30005 5.69981 6.16545 5.69981 6.00005C5.69981 5.83466 5.83441 5.70005 5.99981 5.70005ZM5.69981 2.41526V5.15506C5.53521 5.21365 5.39381 5.31786 5.28902 5.45366L2.68082 4.60625C3.1896 3.39945 4.3386 2.52825 5.69981 2.41526ZM2.39981 6.00005C2.39981 5.71686 2.43599 5.44245 2.4982 5.17784L5.1022 6.02384C5.107 6.20405 5.16321 6.37105 5.25881 6.50963L3.65102 8.72223C2.88642 8.06167 2.39981 7.08746 2.39981 6.00005ZM5.99981 9.60006C5.3174 9.60006 4.681 9.40567 4.1366 9.07445L5.74619 6.85925C5.82719 6.88325 5.91119 6.90006 5.99979 6.90006C6.08859 6.90006 6.17259 6.88325 6.25359 6.85925L7.863 9.07445C7.31862 9.40567 6.68222 9.60006 5.99981 9.60006ZM8.34841 8.72225L6.74081 6.50945C6.83641 6.37084 6.89241 6.20384 6.89721 6.02366L9.50121 5.17765C9.5636 5.44245 9.59981 5.71686 9.59981 6.00005C9.59981 7.08746 9.1132 8.06167 8.34841 8.72225Z" fill="black"/>
</svg>
