<svg width="16" height="16" viewBox="0 0 16 16" fill="none" xmlns="http://www.w3.org/2000/svg">
<path d="M12.2429 3.75879C11.1091 2.62563 9.60337 2 7.99957 2C6.39577 2 4.89 2.62563 3.75628 3.75879C1.56928 5.94472 1.41091 9.43719 3.3591 11.804C3.09013 12.3543 2.77339 12.7211 2.41391 12.897C2.19521 13.005 2.07204 13.2412 2.10723 13.4824C2.14494 13.7261 2.33096 13.9146 2.5748 13.9523C2.70803 13.9724 2.85132 13.9849 2.99963 13.9849C3.73617 13.9849 4.51042 13.7312 5.15647 13.2864C6.02624 13.7538 7.00411 14 7.99957 14C9.60337 14 11.1091 13.3769 12.2429 12.2437C13.3766 11.1106 14 9.60302 14 8.00251C14 6.40201 13.3766 4.89196 12.2429 3.75879ZM11.7627 11.7613C10.7572 12.7663 9.41986 13.3191 7.99957 13.3191C7.04935 13.3191 6.11674 13.0653 5.30478 12.5879C5.25199 12.5578 5.19166 12.5402 5.13384 12.5402C5.06094 12.5402 4.98553 12.5653 4.9252 12.6106C4.15598 13.206 3.38173 13.294 3.04236 13.3015C3.44709 13 3.78645 12.5327 4.07051 11.8819C4.1233 11.7613 4.10067 11.6206 4.01269 11.5201C2.15248 9.4196 2.25052 6.21859 4.23642 4.23367C5.24194 3.22864 6.57927 2.67588 7.99957 2.67588C9.41986 2.67588 10.7572 3.22864 11.7627 4.23367C13.8391 6.31156 13.8391 9.68844 11.7627 11.7613Z" fill="#464646"/>
<path d="M5.5 7.75C5.5 8.16421 5.16421 8.5 4.75 8.5C4.33579 8.5 4 8.16421 4 7.75C4 7.33579 4.33579 7 4.75 7C5.16421 7 5.5 7.33579 5.5 7.75Z" fill="#464646"/>
<path d="M8.5 7.75C8.5 8.16421 8.16421 8.5 7.75 8.5C7.33579 8.5 7 8.16421 7 7.75C7 7.33579 7.33579 7 7.75 7C8.16421 7 8.5 7.33579 8.5 7.75Z" fill="#464646"/>
<path d="M11.5 7.75C11.5 8.16421 11.1642 8.5 10.75 8.5C10.3358 8.5 10 8.16421 10 7.75C10 7.33579 10.3358 7 10.75 7C11.1642 7 11.5 7.33579 11.5 7.75Z" fill="#464646"/>
</svg>
