<svg width="32" height="32" viewBox="0 0 32 32" fill="none" xmlns="http://www.w3.org/2000/svg">
<path d="M1.04243 16.5558H1.55581V15.1257C1.55581 13.4426 2.92506 12.0733 4.60818 12.0733H7.45873C8.98723 8.60447 12.1617 6.72241 15.4938 6.72241H23.7488C25.4933 6.72241 27.0096 7.84279 27.5221 9.51028L28.3871 12.3255C28.9557 12.6094 29.3964 13.112 29.5987 13.7226H30.1932C30.7689 13.7226 31.2356 14.1893 31.2356 14.765C31.2356 15.3407 30.7689 15.8073 30.1932 15.8073H29.7205V16.5583C30.9867 16.613 32 17.6597 32 18.939C32 20.2531 30.9309 21.3223 29.6168 21.3223C28.9003 21.3223 28.4456 21.3223 27.8238 21.3223C27.6186 23.5375 25.7503 25.2779 23.4823 25.2779C21.2143 25.2779 19.346 23.5375 19.1407 21.3223H11.5969C11.3916 23.5375 9.52329 25.2779 7.2553 25.2779C4.98737 25.2779 3.11905 23.5375 2.91381 21.3223C1.80362 21.3223 2.15199 21.3223 1.04237 21.3223C0.466685 21.3223 1.16415e-10 20.8556 1.16415e-10 20.2799V17.5982C6.25e-05 17.0225 0.466686 16.5558 1.04243 16.5558ZM29.7205 19.2189C29.8341 19.1767 29.9152 19.0672 29.9152 18.939C29.9152 18.8108 29.8341 18.7013 29.7205 18.6592V19.2189ZM18.6587 8.80716H15.4938C13.1296 8.80716 10.9643 10.0672 9.7856 12.0733H18.6587V8.80716ZM25.5292 10.1227C25.2875 9.33585 24.5719 8.80716 23.7487 8.80716H20.7434V12.0733H26.1286L25.5292 10.1227ZM23.4823 23.1931C24.7375 23.1931 25.7585 22.172 25.7585 20.9168C25.7585 19.7018 24.8085 18.7222 23.6315 18.646C23.6181 18.6452 23.6049 18.644 23.5916 18.6433C22.2803 18.5807 21.206 19.634 21.206 20.9168C21.206 22.172 22.2271 23.1931 23.4823 23.1931ZM7.2553 23.1931C8.51048 23.1931 9.53154 22.172 9.53154 20.9168C9.53154 19.6577 8.50505 18.6406 7.2553 18.6406C6.00468 18.6406 4.97905 19.6582 4.97905 20.9168C4.97905 22.172 6.00018 23.1931 7.2553 23.1931ZM3.64049 18.4777C4.44218 17.293 5.79243 16.5558 7.25524 16.5558C9.02079 16.5558 10.6093 17.6296 11.2805 19.2375H19.457C20.1368 17.6088 21.7404 16.5558 23.4822 16.5558C25.278 16.5558 26.8478 17.657 27.5074 19.2375H27.6357C27.6357 18.8573 27.6357 15.139 27.6357 14.4767C27.6357 14.3245 27.5283 14.1973 27.3854 14.1659C27.3808 14.1652 27.3761 14.1649 27.3714 14.1642C27.3675 14.1635 27.3645 14.1631 27.361 14.1625C27.3465 14.1605 27.3321 14.1581 27.3171 14.1581H16.8463C16.9692 14.3291 17.0423 14.5383 17.0423 14.765C17.0423 15.3407 16.5757 15.8073 16 15.8073H13.5165C12.9408 15.8073 12.4741 15.3407 12.4741 14.765C12.4741 14.5383 12.5473 14.3291 12.6702 14.1581C11.8636 14.1581 5.41386 14.1581 4.60818 14.1581C4.07462 14.1581 3.64055 14.5922 3.64055 15.1257C3.64049 15.9007 3.64049 17.7778 3.64049 18.4777Z" fill="white"/>
<path d="M7.25535 22.1783C6.55879 22.1783 5.99411 21.6136 5.99411 20.917C5.99411 20.2204 6.55879 19.6558 7.25535 19.6558C7.95192 19.6558 8.5166 20.2204 8.5166 20.917C8.5166 21.6136 7.95192 22.1783 7.25535 22.1783Z" fill="white"/>
<path d="M23.4819 22.1783C22.7853 22.1783 22.2207 21.6136 22.2207 20.917C22.2207 20.2204 22.7853 19.6558 23.4819 19.6558C24.1785 19.6558 24.7432 20.2204 24.7432 20.917C24.7432 21.6136 24.1785 22.1783 23.4819 22.1783Z" fill="white"/>
</svg>
