<svg width="12" height="12" viewBox="0 0 9 12" fill="none" xmlns="http://www.w3.org/2000/svg">
<path d="M3.32372 9.18496C3.32372 9.34063 3.19753 9.46682 3.04186 9.46682H1.97339C1.81772 9.46682 1.69153 9.34063 1.69153 9.18496C1.69153 9.02928 1.81772 8.90309 1.97339 8.90309H3.04186C3.19753 8.90309 3.32372 9.02928 3.32372 9.18496ZM5.13031 3.85692H6.19877C6.35444 3.85692 6.48064 3.73073 6.48064 3.57506C6.48064 3.41938 6.35444 3.29319 6.19877 3.29319H5.13031C4.97463 3.29319 4.84844 3.41938 4.84844 3.57506C4.84844 3.73073 4.97466 3.85692 5.13031 3.85692ZM5.13031 5.05079H6.19877C6.35444 5.05079 6.48064 4.9246 6.48064 4.76892C6.48064 4.61325 6.35444 4.48706 6.19877 4.48706H5.13031C4.97463 4.48706 4.84844 4.61325 4.84844 4.76892C4.84844 4.9246 4.97466 5.05079 5.13031 5.05079ZM3.9062 5.66849H1.97339C1.81772 5.66849 1.69153 5.79468 1.69153 5.95036C1.69153 6.10603 1.81772 6.23222 1.97339 6.23222H3.9062C4.06187 6.23222 4.18806 6.10603 4.18806 5.95036C4.18806 5.79468 4.06187 5.66849 3.9062 5.66849ZM3.88787 7.71512H1.97336C1.81769 7.71512 1.6915 7.84131 1.6915 7.99698C1.6915 8.15265 1.81769 8.27884 1.97336 8.27884H3.88787C4.04355 8.27884 4.16974 8.15265 4.16974 7.99698C4.16974 7.84131 4.04355 7.71512 3.88787 7.71512ZM8.97086 8.14984V9.98869C8.97086 11.0977 8.06858 12 6.95955 12C6.43472 12 5.9562 11.7979 5.59769 11.4675H0.281865C0.126191 11.4675 0 11.3413 0 11.1857V0.281887C0 0.126213 0.126191 2.21747e-05 0.281865 2.21747e-05H5.95524C6.02836 -0.000907979 6.10071 0.0274476 6.155 0.0807201C6.15503 0.0807483 6.15505 0.0807765 6.15508 0.0808046C6.15525 0.0809738 6.15545 0.0811429 6.15562 0.0813402C6.15573 0.0814529 6.15587 0.0815939 6.15598 0.0817066C6.15607 0.0817912 6.15615 0.0818757 6.15624 0.0819603C6.15643 0.0821576 6.15666 0.0823831 6.15686 0.0825804L8.08966 2.01538C8.08983 2.01558 8.09003 2.01578 8.09023 2.01598C8.09025 2.016 8.09031 2.01606 8.09037 2.01612C8.09051 2.01626 8.09068 2.01643 8.09085 2.0166C8.09087 2.01662 8.0909 2.01665 8.09093 2.01671C8.13045 2.05671 8.15615 2.10657 8.16672 2.15945V2.15947C8.16684 2.16004 8.16695 2.1606 8.16706 2.16114V2.16116C8.16712 2.16145 8.16717 2.1617 8.16723 2.16198V2.16201C8.17067 2.18011 8.17236 2.19854 8.17219 2.21706V7.78724C8.36315 7.81024 8.55237 7.83868 8.73925 7.87254C8.87336 7.8968 8.97086 8.01355 8.97086 8.14984ZM6.23942 1.93283H7.20988L6.23942 0.962365V1.93283ZM4.94822 9.98872V8.14984C4.94822 8.01355 5.04572 7.89678 5.17983 7.87248C5.75641 7.76799 6.35518 7.71503 6.95952 7.71503C7.17684 7.71503 7.39343 7.72188 7.60849 7.73552V2.49656H5.95755C5.80188 2.49656 5.67569 2.37036 5.67569 2.21469V0.563752H0.56373V10.9039H5.16872C5.02776 10.6291 4.94822 10.3181 4.94822 9.98872ZM8.40713 8.38835C7.93548 8.31557 7.44963 8.27876 6.9595 8.27876C6.46939 8.27876 5.98354 8.31557 5.51192 8.38835V9.98869C5.51192 10.7869 6.16131 11.4362 6.9595 11.4362C7.75771 11.4362 8.40713 10.7868 8.40713 9.98869V8.38835ZM6.67763 9.08768V9.57565H6.18972C6.03405 9.57565 5.90786 9.70184 5.90786 9.85751C5.90786 10.0132 6.03405 10.1394 6.18972 10.1394H6.67763V10.6274C6.67763 10.783 6.80382 10.9092 6.9595 10.9092C7.11517 10.9092 7.24136 10.783 7.24136 10.6274V10.1394H7.72938C7.88506 10.1394 8.01125 10.0132 8.01125 9.85751C8.01125 9.70184 7.88506 9.57565 7.72938 9.57565H7.24136V9.08768C7.24136 8.93201 7.11517 8.80582 6.9595 8.80582C6.80382 8.80582 6.67763 8.93201 6.67763 9.08768ZM6.19877 6.23222C6.35444 6.23222 6.48064 6.10603 6.48064 5.95036C6.48064 5.79468 6.35444 5.66849 6.19877 5.66849H5.13031C4.97463 5.66849 4.84844 5.79468 4.84844 5.95036C4.84844 6.10603 4.97463 6.23222 5.13031 6.23222H6.19877ZM3.9062 4.48706H1.97339C1.81772 4.48706 1.69153 4.61325 1.69153 4.76892C1.69153 4.9246 1.81772 5.05079 1.97339 5.05079H3.9062C4.06187 5.05079 4.18806 4.9246 4.18806 4.76892C4.18806 4.61325 4.06187 4.48706 3.9062 4.48706ZM3.9062 3.29319H1.97339C1.81772 3.29319 1.69153 3.41938 1.69153 3.57506C1.69153 3.73073 1.81772 3.85692 1.97339 3.85692H3.9062C4.06187 3.85692 4.18806 3.73073 4.18806 3.57506C4.18806 3.41938 4.06187 3.29319 3.9062 3.29319Z" fill="black"/>
</svg>
