<svg width="24" height="24" viewBox="0 0 24 24" fill="none" xmlns="http://www.w3.org/2000/svg">
<path d="M6.93515 13.4372C7.64901 13.4372 8.22772 12.8585 8.22772 12.1446C8.22772 11.4308 7.64901 10.8521 6.93515 10.8521C6.22128 10.8521 5.64258 11.4308 5.64258 12.1446C5.64258 12.8585 6.22128 13.4372 6.93515 13.4372Z" fill="white"/>
<path d="M11.9683 13.4372C12.6822 13.4372 13.2609 12.8585 13.2609 12.1446C13.2609 11.4308 12.6822 10.8521 11.9683 10.8521C11.2545 10.8521 10.6758 11.4308 10.6758 12.1446C10.6758 12.8585 11.2545 13.4372 11.9683 13.4372Z" fill="white"/>
<path d="M0.75 11.9179C0.75 5.73139 5.78267 0.69873 11.9692 0.69873C18.1557 0.69873 23.1885 5.73146 23.1885 11.918C23.1885 18.1045 18.1558 23.1373 11.9693 23.1373C10.4696 23.1373 9.01743 22.847 7.64798 22.274C6.48919 22.9138 5.18525 23.2501 3.85222 23.2501C2.98614 23.2501 2.13073 23.1078 1.30998 22.8274C1.04275 22.7361 0.848144 22.5042 0.80463 22.2251L0.75 11.9179ZM0.75 11.9179C0.75 14.4478 1.6057 16.9009 3.16868 18.8765M0.75 11.9179L3.16868 18.8765M3.16868 18.8765C2.72841 19.9163 2.02054 20.8164 1.10266 21.4975L3.16868 18.8765ZM3.85215 21.7295C3.61573 21.7295 3.38031 21.7164 3.14664 21.6902C3.85762 20.9099 4.40443 19.9936 4.75544 18.9846L4.75545 18.9846C4.84443 18.7287 4.79056 18.4446 4.61369 18.2391C3.10266 16.4827 2.27045 14.2378 2.27045 11.9179C2.27045 6.57028 6.62155 2.21918 11.9692 2.21918C17.3169 2.21918 21.668 6.57028 21.668 11.9179C21.668 17.2657 17.3169 21.6168 11.9692 21.6168C10.5547 21.6168 9.19161 21.3189 7.91651 20.7314C7.68425 20.6243 7.41387 20.6412 7.19667 20.7764C6.19476 21.3998 5.03833 21.7295 3.85215 21.7295Z" fill="white" stroke="white" stroke-width="0.5"/>
<path d="M17.0035 13.4372C17.7174 13.4372 18.2961 12.8585 18.2961 12.1446C18.2961 11.4308 17.7174 10.8521 17.0035 10.8521C16.2896 10.8521 15.7109 11.4308 15.7109 12.1446C15.7109 12.8585 16.2896 13.4372 17.0035 13.4372Z" fill="white"/>
</svg>
