<svg width="33" height="39" viewBox="0 0 33 39" fill="none" xmlns="http://www.w3.org/2000/svg">
<path d="M10.5 20.4938C12.0225 20.4938 13.2563 21.7275 13.2563 23.25C13.2563 24.7725 12.0225 26.0063 10.5 26.0063C8.9775 26.0063 7.74375 24.7725 7.74375 23.25C7.74375 21.7275 8.9775 20.4938 10.5 20.4938ZM10.5 32.3062C14.3981 32.3062 18.5063 34.2225 18.5063 35.0625V36.5063H2.49375V35.0625C2.49375 34.2225 6.60187 32.3062 10.5 32.3062ZM10.5 18C7.59937 18 5.25 20.3494 5.25 23.25C5.25 26.1506 7.59937 28.5 10.5 28.5C13.4006 28.5 15.75 26.1506 15.75 23.25C15.75 20.3494 13.4006 18 10.5 18ZM10.5 29.8125C6.99562 29.8125 0 31.5712 0 35.0625V39H21V35.0625C21 31.5712 14.0044 29.8125 10.5 29.8125Z" fill="white"/>
<circle cx="24" cy="14" r="9" fill="#FF5A43"/>
<path d="M24.6849 15.6473H23.0559L22.874 7.62545H24.874L24.6849 15.6473ZM23.8777 19.8218C23.5625 19.8218 23.2934 19.7103 23.0704 19.4873C22.8474 19.2691 22.7359 19.0024 22.7359 18.6873C22.7359 18.3721 22.8474 18.1055 23.0704 17.8873C23.2934 17.6642 23.5625 17.5527 23.8777 17.5527C24.1928 17.5527 24.4595 17.6642 24.6777 17.8873C24.9007 18.1055 25.0122 18.3721 25.0122 18.6873C25.0122 19.0024 24.9007 19.2691 24.6777 19.4873C24.4595 19.7103 24.1928 19.8218 23.8777 19.8218Z" fill="white"/>
</svg>
