<svg width="21" height="21" viewBox="0 0 21 21" fill="none" xmlns="http://www.w3.org/2000/svg">
<path d="M10.5 2.49375C12.0225 2.49375 13.2563 3.7275 13.2563 5.25C13.2563 6.7725 12.0225 8.00625 10.5 8.00625C8.9775 8.00625 7.74375 6.7725 7.74375 5.25C7.74375 3.7275 8.9775 2.49375 10.5 2.49375ZM10.5 14.3062C14.3981 14.3062 18.5063 16.2225 18.5063 17.0625V18.5063H2.49375V17.0625C2.49375 16.2225 6.60187 14.3062 10.5 14.3062ZM10.5 0C7.59937 0 5.25 2.34937 5.25 5.25C5.25 8.15063 7.59937 10.5 10.5 10.5C13.4006 10.5 15.75 8.15063 15.75 5.25C15.75 2.34937 13.4006 0 10.5 0ZM10.5 11.8125C6.99562 11.8125 0 13.5712 0 17.0625V21H21V17.0625C21 13.5712 14.0044 11.8125 10.5 11.8125Z" fill="white"/>
</svg>
