<svg width="214" height="214" viewBox="0 0 214 214" fill="none" xmlns="http://www.w3.org/2000/svg">
<circle cx="107" cy="107" r="107" fill="white"/>
<path d="M32 150.841L33.2439 149.615L92.0744 70.9666L92.1986 70.134L66.2656 35.8134C64.0918 32.9385 57.9746 33.6655 57.2621 36.8839L32 150.841Z" fill="#FFC24A"/>
<path d="M32.7344 150.019L33.6748 148.726L91.8894 70.8254L66.0203 36.3316C63.8705 33.484 58.4107 34.2101 57.7053 37.3977L32.7344 150.019Z" fill="#FFA712"/>
<g filter="url(#filter0_i_103_2587)">
<path d="M32.7344 150.019L33.6748 148.726L91.8894 70.8254L66.0203 36.3316C63.8705 33.484 58.4107 34.2101 57.7053 37.3977L32.7344 150.019Z" fill="black"/>
</g>
<path d="M111.104 96.1485L130.414 82.2011L111.099 56.1948C109.265 53.7331 104.146 53.7256 102.332 56.1948L92.0117 70.0749V71.2568L111.104 96.1485H111.104Z" fill="#F4BD62"/>
<path d="M110.76 95.5441L129.533 81.992L110.76 56.7947C108.978 54.4029 104.647 54.1522 102.883 56.551L92.5093 70.6388L92.1987 71.3591L110.76 95.5441Z" fill="#FFA50E"/>
<g filter="url(#filter1_i_103_2587)">
<path d="M110.76 95.5441L129.533 81.992L110.76 56.7947C108.978 54.4029 104.647 54.1522 102.883 56.551L92.5093 70.6388L92.1987 71.3591L110.76 95.5441Z" fill="black"/>
</g>
<path d="M32 150.923L32.5637 150.523L34.6121 149.936L109.892 97.0537L110.846 95.2231L92.0662 69.9907L32 150.923Z" fill="#F6820C"/>
<path d="M113.516 177.561L181.646 150.778L162.191 66.3165C161.582 63.674 156.983 62.6295 154.299 64.524L32 150.899L99.7391 177.559C101.845 178.388 104.216 178.823 106.627 178.823C109.039 178.824 111.41 178.389 113.516 177.561Z" fill="#FDE068"/>
<path d="M181.036 150.517L161.728 66.7321C161.125 64.1105 157.299 63.0259 154.636 64.9056L32.7559 150.699L99.7515 177.084C101.841 177.906 104.194 178.337 106.587 178.338C108.98 178.338 111.334 177.907 113.424 177.086L181.036 150.517L181.036 150.517Z" fill="#FCCA3F"/>
<path d="M113.516 176.772C111.41 177.6 109.038 178.034 106.627 178.034C104.216 178.034 101.845 177.598 99.7391 176.77L32.5454 150.493L32.0005 150.899L99.7391 177.559C101.845 178.388 104.216 178.823 106.627 178.823C109.039 178.824 111.41 178.389 113.516 177.561L181.646 150.778L181.479 150.054L113.516 176.772L113.516 176.772Z" fill="#EEAB37"/>
<defs>
<filter id="filter0_i_103_2587" x="32.7344" y="34.552" width="59.1553" height="115.468" filterUnits="userSpaceOnUse" color-interpolation-filters="sRGB">
<feFlood flood-opacity="0" result="BackgroundImageFix"/>
<feBlend mode="normal" in="SourceGraphic" in2="BackgroundImageFix" result="shape"/>
<feColorMatrix in="SourceAlpha" type="matrix" values="0 0 0 0 0 0 0 0 0 0 0 0 0 0 0 0 0 0 127 0" result="hardAlpha"/>
<feOffset/>
<feGaussianBlur stdDeviation="124.619"/>
<feComposite in2="hardAlpha" operator="arithmetic" k2="-1" k3="1"/>
<feColorMatrix type="matrix" values="0 0 0 0 0 0 0 0 0 0 0 0 0 0 0 0 0 0 0.06 0"/>
<feBlend mode="normal" in2="shape" result="effect1_innerShadow_103_2587"/>
</filter>
<filter id="filter1_i_103_2587" x="92.1987" y="5.02393" width="44.4551" height="90.5203" filterUnits="userSpaceOnUse" color-interpolation-filters="sRGB">
<feFlood flood-opacity="0" result="BackgroundImageFix"/>
<feBlend mode="normal" in="SourceGraphic" in2="BackgroundImageFix" result="shape"/>
<feColorMatrix in="SourceAlpha" type="matrix" values="0 0 0 0 0 0 0 0 0 0 0 0 0 0 0 0 0 0 127 0" result="hardAlpha"/>
<feOffset dx="7.12109" dy="-64.0898"/>
<feGaussianBlur stdDeviation="24.9238"/>
<feComposite in2="hardAlpha" operator="arithmetic" k2="-1" k3="1"/>
<feColorMatrix type="matrix" values="0 0 0 0 0 0 0 0 0 0 0 0 0 0 0 0 0 0 0.09 0"/>
<feBlend mode="normal" in2="shape" result="effect1_innerShadow_103_2587"/>
</filter>
</defs>
</svg>
