<svg width="27" height="27" viewBox="0 0 27 27" fill="none" xmlns="http://www.w3.org/2000/svg">
<path d="M5.625 12.375H14.625V14.625H5.625V18L0 13.5L5.625 9V12.375ZM4.5 20.25H7.5465C8.84552 21.3956 10.4475 22.1421 12.1603 22.3998C13.873 22.6575 15.6237 22.4156 17.2024 21.7029C18.781 20.9903 20.1205 19.8373 21.0601 18.3823C21.9997 16.9273 22.4994 15.232 22.4994 13.5C22.4994 11.768 21.9997 10.0727 21.0601 8.61771C20.1205 7.16269 18.781 6.00968 17.2024 5.29706C15.6237 4.58444 13.873 4.34247 12.1603 4.60019C10.4475 4.85791 8.84552 5.60437 7.5465 6.75H4.5C5.54699 5.35183 6.90562 4.21708 8.46795 3.43591C10.0303 2.65475 11.7533 2.24869 13.5 2.25C19.7134 2.25 24.75 7.28663 24.75 13.5C24.75 19.7134 19.7134 24.75 13.5 24.75C11.7533 24.7513 10.0303 24.3453 8.46795 23.5641C6.90562 22.7829 5.54699 21.6482 4.5 20.25V20.25Z" fill="white"/>
</svg>
