<svg width="22" height="21" viewBox="0 0 22 21" fill="none" xmlns="http://www.w3.org/2000/svg">
<path d="M10.682 19.749C10.682 19.5501 10.761 19.3593 10.9017 19.2187C11.0423 19.078 11.2331 18.999 11.432 18.999C13.3184 18.999 15.1478 18.3526 16.6154 17.1674C18.083 15.9822 19.1001 14.3299 19.4973 12.4858C19.8944 10.6416 19.6475 8.71712 18.7978 7.03293C17.9481 5.34873 16.5469 4.00659 14.8277 3.23019C13.1085 2.45378 11.1751 2.28999 9.3498 2.76613C7.52448 3.24226 5.91746 4.32956 4.79655 5.84682C3.67565 7.36408 3.10856 9.21964 3.1898 11.1043C3.27103 12.9889 3.99569 14.7888 5.243 16.204V13.567C5.243 13.3681 5.32202 13.1773 5.46267 13.0367C5.60332 12.896 5.79409 12.817 5.993 12.817C6.19191 12.817 6.38268 12.896 6.52333 13.0367C6.66398 13.1773 6.743 13.3681 6.743 13.567V17.81C6.743 17.9086 6.72357 18.0062 6.68581 18.0973C6.64806 18.1883 6.59273 18.271 6.52298 18.3407C6.45323 18.4103 6.37043 18.4656 6.27932 18.5032C6.18821 18.5408 6.09058 18.5601 5.992 18.56H1.75C1.55109 18.56 1.36032 18.481 1.21967 18.3403C1.07902 18.1997 1 18.0089 1 17.81C1 17.6111 1.07902 17.4203 1.21967 17.2797C1.36032 17.139 1.55109 17.06 1.75 17.06H4C2.56222 15.3664 1.74594 13.2325 1.68631 11.0117C1.62667 8.79094 2.32725 6.61636 3.67205 4.84802C5.01686 3.07968 6.92525 1.82364 9.08128 1.28783C11.2373 0.752017 13.5117 0.968579 15.5278 1.90166C17.544 2.83474 19.181 4.42838 20.1679 6.41874C21.1548 8.4091 21.4324 10.6768 20.9547 12.8465C20.477 15.0161 19.2727 16.9576 17.5411 18.3494C15.8096 19.7412 13.6546 20.5 11.433 20.5C11.3343 20.5001 11.2366 20.4808 11.1454 20.4431C11.0543 20.4054 10.9714 20.3501 10.9017 20.2803C10.8319 20.2106 10.7766 20.1277 10.7389 20.0366C10.7012 19.9454 10.6819 19.8477 10.682 19.749ZM13.557 14.935L10.9 12.28C10.7594 12.139 10.6803 11.9481 10.68 11.749V6.54901C10.68 6.3501 10.759 6.15933 10.8997 6.01868C11.0403 5.87803 11.2311 5.79901 11.43 5.79901C11.6289 5.79901 11.8197 5.87803 11.9603 6.01868C12.101 6.15933 12.18 6.3501 12.18 6.54901V11.438L14.616 13.874C14.6876 13.9432 14.7447 14.026 14.784 14.1175C14.8232 14.2091 14.8439 14.3075 14.8447 14.4071C14.8455 14.5066 14.8265 14.6054 14.7887 14.6976C14.751 14.7897 14.6952 14.8734 14.6248 14.9438C14.5543 15.0142 14.4706 15.0698 14.3784 15.1075C14.2862 15.1452 14.1874 15.1641 14.0878 15.1632C13.9883 15.1623 13.8899 15.1415 13.7984 15.1022C13.7069 15.0628 13.6242 15.0057 13.555 14.934L13.557 14.935Z" fill="white" stroke="white" stroke-width="0.5"/>
</svg>
