<svg width="33" height="23" viewBox="0 0 33 23" fill="none" xmlns="http://www.w3.org/2000/svg">
<path d="M0 7.73438H33V14.9531H0V7.73438Z" fill="#E6E7E8"/>
<path d="M27.8438 0H5.15625C1.7392 0 0 2.53945 0 5.67188V7.73438H33V5.67188C33 2.53945 31.2608 0 27.8438 0Z" fill="#29B473"/>
<path d="M0 17.0156C0 20.148 1.7392 22.6875 5.15625 22.6875H27.8438C31.2608 22.6875 33 20.148 33 17.0156V14.9531H0V17.0156Z" fill="#EC1C24"/>
<path fill-rule="evenodd" clip-rule="evenodd" d="M15.1777 8.86868C15.171 8.87384 15.1664 8.87796 15.1628 8.87899C14.8163 9.07493 14.5456 9.34718 14.328 9.67718C14.0996 10.0293 13.942 10.4224 13.8639 10.8348C13.8095 11.1161 13.7879 11.4028 13.7995 11.6891C13.8237 12.2419 13.9598 12.7632 14.2352 13.2463C14.3095 13.379 14.3953 13.5049 14.4915 13.6227C14.3842 13.5995 13.9629 13.2412 13.7907 13.0293C13.397 12.5471 13.1897 11.9396 13.2065 11.3174C13.2421 10.0603 14.1382 9.10948 15.1777 8.86816" fill="#C32129"/>
<path fill-rule="evenodd" clip-rule="evenodd" d="M15.7013 8.104C15.7282 8.29943 15.8653 8.45515 16.0458 8.49382C16.2201 8.53197 16.4083 8.45515 16.5119 8.26436C16.6186 8.44122 16.7692 8.53558 16.976 8.49279C17.1796 8.45102 17.2843 8.30613 17.3297 8.10916C17.3323 8.137 17.339 8.1633 17.34 8.1896C17.3483 8.35511 17.3085 8.50516 17.2039 8.63561C17.1126 8.7475 16.9966 8.81196 16.8491 8.80835C16.7903 8.80589 16.7327 8.79139 16.6798 8.76576C16.6268 8.74013 16.5797 8.70391 16.5413 8.65933L16.514 8.62994C16.4825 8.65933 16.4536 8.69182 16.4206 8.71708C16.2299 8.8661 15.97 8.83001 15.8189 8.63252C15.7008 8.4799 15.6658 8.30561 15.6936 8.11793C15.6936 8.11483 15.6962 8.11122 15.6962 8.10864C15.6981 8.1073 15.6998 8.10575 15.7013 8.104Z" fill="#C32129"/>
<path fill-rule="evenodd" clip-rule="evenodd" d="M17.8472 8.86868C17.8549 8.87384 17.8595 8.87796 17.8632 8.87899C18.2097 9.07493 18.4804 9.34718 18.6979 9.67718C18.93 10.0319 19.079 10.4192 19.161 10.8348C19.2162 11.1163 19.2378 11.4014 19.2254 11.6891C19.2022 12.2419 19.0661 12.7632 18.7913 13.2463C18.7203 13.3719 18.6391 13.4914 18.5484 13.6037C18.5443 13.6088 18.5381 13.616 18.5345 13.6227C18.6423 13.5995 19.0635 13.2412 19.2352 13.0293C19.4307 12.7879 19.5797 12.5224 19.6807 12.228C19.7802 11.935 19.8272 11.6267 19.8194 11.3174C19.7849 10.0603 18.8877 9.10948 17.8472 8.86816" fill="#C32129"/>
<path fill-rule="evenodd" clip-rule="evenodd" d="M18.5673 12.1384C18.7465 11.5242 18.7254 10.869 18.507 10.2677C18.3249 9.7474 17.9998 9.28901 17.5691 8.94509L17.5794 8.96262C17.8453 9.34995 18.023 9.79084 18.1002 10.2543C18.1414 10.5023 18.1569 10.7539 18.1414 11.005C18.0992 11.7336 17.8615 12.3889 17.4092 12.9644C17.2556 13.1598 17.0787 13.3356 16.8828 13.4898C16.8761 13.4934 16.8704 13.4986 16.8601 13.5063C16.888 12.028 16.9142 10.5554 16.9421 9.08276C16.7601 9.03068 16.6281 8.91363 16.5115 8.76978C16.394 8.91363 16.263 9.0312 16.081 9.08276C16.1088 10.5554 16.1351 12.028 16.163 13.5063C16.1527 13.4981 16.147 13.4934 16.1403 13.4898C15.9445 13.3363 15.7677 13.1599 15.6138 12.9644C15.1616 12.3889 14.9245 11.7336 14.8801 11.005C14.8652 10.7539 14.8801 10.5023 14.9229 10.2543C14.9996 9.79071 15.1774 9.34973 15.4437 8.96262L15.4545 8.94509C15.0234 9.28879 14.6981 9.74724 14.5161 10.2677C14.2979 10.869 14.2768 11.5242 14.4557 12.1384C14.6945 12.9618 15.1977 13.5754 15.9531 13.9827C15.6953 14.0699 15.2359 14.1622 14.7043 14.0792C14.7084 14.0802 14.712 14.0828 14.7151 14.0843C14.9853 14.1952 15.2668 14.2612 15.5592 14.2839C15.7654 14.2999 15.9732 14.2942 16.1785 14.2638C16.1975 14.2612 16.2068 14.2663 16.2166 14.2813C16.3099 14.4303 16.4043 14.5778 16.4976 14.7268C16.5028 14.733 16.5069 14.7392 16.5115 14.7469L16.5255 14.7268C16.6188 14.5778 16.7137 14.4303 16.807 14.2813C16.8173 14.2663 16.8256 14.2612 16.8446 14.2638C17.0499 14.2942 17.2577 14.2999 17.4644 14.2839C17.7543 14.2618 18.0389 14.1945 18.308 14.0843L18.3183 14.0792C17.9007 14.1448 17.4735 14.1118 17.071 13.9827C17.8259 13.5754 18.3312 12.9618 18.5684 12.1384" fill="#C32129"/>
</svg>
