<svg width="16" height="16" viewBox="0 0 16 16" fill="none" xmlns="http://www.w3.org/2000/svg">
<path d="M7.99967 9.33333C9.47034 9.33333 10.6663 8.13733 10.6663 6.66667C10.6663 5.196 9.47034 4 7.99967 4C6.52901 4 5.33301 5.196 5.33301 6.66667C5.33301 8.13733 6.52901 9.33333 7.99967 9.33333ZM7.99967 5.33333C8.73501 5.33333 9.33301 5.93133 9.33301 6.66667C9.33301 7.402 8.73501 8 7.99967 8C7.26434 8 6.66634 7.402 6.66634 6.66667C6.66634 5.93133 7.26434 5.33333 7.99967 5.33333Z" fill="#29B473"/>
<path d="M7.61372 14.5423C7.72655 14.6229 7.86173 14.6662 8.00038 14.6662C8.13903 14.6662 8.27422 14.6229 8.38705 14.5423C8.58972 14.399 13.3531 10.9597 13.3337 6.66634C13.3337 3.72567 10.941 1.33301 8.00038 1.33301C5.05972 1.33301 2.66705 3.72567 2.66705 6.66301C2.64772 10.9597 7.41105 14.399 7.61372 14.5423ZM8.00038 2.66634C10.2064 2.66634 12.0004 4.46034 12.0004 6.66967C12.0144 9.62834 9.07505 12.285 8.00038 13.1563C6.92638 12.2843 3.98638 9.62701 4.00038 6.66634C4.00038 4.46034 5.79438 2.66634 8.00038 2.66634Z" fill="#29B473"/>
</svg>
