<svg width="48" height="48" viewBox="0 0 48 48" fill="none" xmlns="http://www.w3.org/2000/svg">
<path d="M47.6448 22.7432L44.9648 18.3824L45.1056 13.2657C45.1304 12.3616 44.6448 11.52 43.8488 11.0889L39.3473 8.65286L36.9105 4.15126C36.4905 3.37529 35.6793 2.89369 34.8001 2.89369C34.7777 2.89369 34.7562 2.89369 34.7337 2.89454L29.6171 3.03535L25.2564 0.355219C24.8716 0.118406 24.4363 0 24.0004 0C23.5644 0 23.1292 0.118406 22.7436 0.355219L18.3829 3.03516L13.2662 2.89435C13.2438 2.89351 13.2223 2.89351 13.1999 2.89351C12.3207 2.89351 11.5095 3.3751 11.0895 4.15107L8.65269 8.65277L4.15117 11.0888C3.35516 11.5192 2.86964 12.3608 2.89439 13.2656L3.03519 18.3823L0.355212 22.7432C-0.118404 23.5144 -0.118404 24.4857 0.355212 25.2569L3.03519 29.6176L2.89439 34.7344C2.86954 35.6392 3.35516 36.4808 4.15117 36.9112L8.65269 39.3472L11.0894 43.8488C11.5094 44.6248 12.3206 45.1064 13.1998 45.1064C13.2222 45.1064 13.2437 45.1064 13.2661 45.1056L18.3828 44.9647L22.7435 47.6448C23.1291 47.8816 23.5643 48 24.0003 48C24.4363 48 24.8715 47.8816 25.2571 47.6448L29.6178 44.9647L34.7345 45.1056C34.7569 45.1064 34.7785 45.1064 34.8009 45.1064C35.68 45.1064 36.4912 44.6248 36.9112 43.8488L39.348 39.3472L43.8495 36.9112C44.6456 36.4808 45.1311 35.6392 45.1063 34.7344L44.9655 29.6176L47.6455 25.2569C48.1183 24.4857 48.1183 23.5144 47.6448 22.7432Z" fill="#FF0000"/>
<path d="M7.30645 24.9891C7.43493 24.9891 7.54887 24.9527 7.64827 24.88C7.77918 24.7879 7.84463 24.6509 7.84463 24.4691C7.84463 24.36 7.75009 24.2061 7.56099 24.0073C7.46645 23.9103 7.3719 23.823 7.27736 23.7455C6.93312 24.0291 6.76099 24.2764 6.76099 24.4873C6.76099 24.6667 6.82887 24.8012 6.96463 24.8909C7.01554 24.9248 7.07493 24.9503 7.14281 24.9673C7.19857 24.9818 7.25312 24.9891 7.30645 24.9891ZM7.12463 21.8727C7.12948 21.8752 7.13554 21.88 7.14281 21.8873C7.15736 21.9042 7.17554 21.9248 7.19736 21.9491C7.26524 22.0194 7.34039 22.0994 7.42281 22.1891C7.68221 22.4679 7.96706 22.777 8.27736 23.1164C8.37433 23.2255 8.45433 23.32 8.51736 23.4C8.60705 23.5115 8.68342 23.6194 8.74645 23.7236C8.90645 23.9952 8.98645 24.2667 8.98645 24.5382C8.98645 24.8121 8.9319 25.057 8.82281 25.2727C8.73796 25.4352 8.62524 25.5745 8.48463 25.6909C8.18645 25.9333 7.79372 26.0545 7.30645 26.0545C6.81918 26.0545 6.42766 25.9321 6.1319 25.6873C5.99372 25.5733 5.88342 25.4364 5.80099 25.2764C5.6919 25.0655 5.63736 24.8242 5.63736 24.5527C5.63736 24.0752 5.83372 23.6182 6.22645 23.1818L6.46645 22.9091L6.2519 22.68L7.12099 21.8655L7.12463 21.8727ZM11.488 23.5382V24.5309C11.488 24.6352 11.5414 24.7188 11.648 24.7818C11.7329 24.8352 11.8189 24.8618 11.9062 24.8618H12.0735V26.0545H11.9062C11.7656 26.0545 11.6165 26.0315 11.4589 25.9855C11.3886 26.5212 11.208 26.9527 10.9171 27.28C10.4929 27.7624 9.87228 28.0036 9.05531 28.0036H8.69531V26.8109H9.05531C9.50137 26.8109 9.81895 26.7103 10.008 26.5091C10.1996 26.3079 10.2953 25.9709 10.2953 25.4982V23.5382H11.488ZM9.86622 22.7127C9.69168 22.7127 9.54137 22.6509 9.41531 22.5273C9.29168 22.4012 9.22986 22.2497 9.22986 22.0727C9.22986 21.8982 9.29168 21.7491 9.41531 21.6255C9.54137 21.4994 9.69168 21.4364 9.86622 21.4364C10.0432 21.4364 10.1935 21.4994 10.3171 21.6255C10.4408 21.7491 10.5026 21.8982 10.5026 22.0727C10.5026 22.2497 10.4408 22.4012 10.3171 22.5273C10.1935 22.6509 10.0432 22.7127 9.86622 22.7127ZM11.4662 22.7127C11.2893 22.7127 11.1377 22.6509 11.0117 22.5273C10.888 22.4012 10.8262 22.2497 10.8262 22.0727C10.8262 21.8982 10.888 21.7491 11.0117 21.6255C11.1377 21.4994 11.2893 21.4364 11.4662 21.4364C11.6408 21.4364 11.7899 21.4994 11.9135 21.6255C12.0396 21.7491 12.1026 21.8982 12.1026 22.0727C12.1026 22.2497 12.0396 22.4012 11.9135 22.5273C11.7899 22.6509 11.6408 22.7127 11.4662 22.7127ZM10.6589 21.4727C10.5038 21.4727 10.3717 21.4182 10.2626 21.3091C10.1535 21.2 10.0989 21.0679 10.0989 20.9127C10.0989 20.7576 10.1535 20.6255 10.2626 20.5164C10.3717 20.4048 10.5038 20.3491 10.6589 20.3491C10.8141 20.3491 10.9462 20.4048 11.0553 20.5164C11.1668 20.6255 11.2226 20.7576 11.2226 20.9127C11.2226 21.0679 11.1668 21.2 11.0553 21.3091C10.9462 21.4182 10.8141 21.4727 10.6589 21.4727ZM15.0811 24.2073C15.1005 24.3236 15.1102 24.4352 15.1102 24.5418C15.1102 24.8715 15.0156 25.1673 14.8265 25.4291C14.5235 25.8461 14.0302 26.0545 13.3465 26.0545H11.9247V24.8618H13.3211C13.5393 24.8618 13.6932 24.8327 13.7829 24.7745C13.875 24.7188 13.9211 24.6303 13.9211 24.5091C13.9211 24.4727 13.9162 24.4327 13.9065 24.3891C13.8823 24.2655 13.858 24.1394 13.8338 24.0109C13.8241 23.9624 13.8144 23.9103 13.8047 23.8545L13.7902 23.7855L13.7793 23.7164C13.7429 23.5176 13.715 23.3758 13.6956 23.2909L14.8338 22.9455C14.9065 23.2873 14.989 23.7079 15.0811 24.2073ZM12.7102 28.0509C12.5356 28.0509 12.3853 27.9879 12.2593 27.8618C12.1356 27.7382 12.0738 27.5891 12.0738 27.4145C12.0738 27.2376 12.1356 27.0873 12.2593 26.9636C12.3853 26.84 12.5356 26.7782 12.7102 26.7782C12.8871 26.7782 13.0374 26.84 13.1611 26.9636C13.2847 27.0873 13.3465 27.2376 13.3465 27.4145C13.3465 27.5891 13.2847 27.7382 13.1611 27.8618C13.0374 27.9879 12.8871 28.0509 12.7102 28.0509ZM14.2374 28.0509C14.0605 28.0509 13.909 27.9879 13.7829 27.8618C13.6593 27.7382 13.5974 27.5891 13.5974 27.4145C13.5974 27.2376 13.6593 27.0873 13.7829 26.9636C13.909 26.84 14.0605 26.7782 14.2374 26.7782C14.412 26.7782 14.5611 26.84 14.6847 26.9636C14.8108 27.0873 14.8738 27.2376 14.8738 27.4145C14.8738 27.5891 14.8108 27.7382 14.6847 27.8618C14.5611 27.9879 14.412 28.0509 14.2374 28.0509ZM17.9222 24.8655V24.4909C17.9222 24.2679 17.8749 24.0909 17.7804 23.96C17.6859 23.8315 17.5574 23.7673 17.3949 23.7673C17.2301 23.7673 17.0992 23.8315 17.0022 23.96C16.9125 24.0788 16.8677 24.2327 16.8677 24.4218C16.8677 24.4436 16.8689 24.4667 16.8713 24.4909C16.8786 24.6194 16.9355 24.7164 17.0422 24.7818C17.1343 24.8376 17.2519 24.8655 17.3949 24.8655H17.9222ZM17.3949 22.5745C17.9307 22.5745 18.3574 22.7697 18.6749 23.16C18.9683 23.5164 19.1149 23.96 19.1149 24.4909V25.8255C19.1149 26.6691 18.7671 27.2715 18.0713 27.6327C17.8022 27.7733 17.4822 27.8752 17.1113 27.9382C16.8228 27.9891 16.5077 28.0145 16.1659 28.0145V26.8218C16.7719 26.8218 17.2277 26.737 17.5331 26.5673C17.7804 26.4315 17.904 26.2606 17.904 26.0545H17.3949C16.961 26.0545 16.5937 25.9382 16.2931 25.7055C15.9271 25.4242 15.744 25.0194 15.744 24.4909C15.744 23.9891 15.8652 23.5636 16.1077 23.2145C16.4034 22.7879 16.8325 22.5745 17.3949 22.5745ZM31.6027 24.16C31.6269 24.2642 31.639 24.3733 31.639 24.4873C31.639 24.5794 31.6305 24.6752 31.6136 24.7745C31.5724 25 31.4912 25.2048 31.3699 25.3891C31.0815 25.8327 30.6609 26.0545 30.1081 26.0545C29.8584 26.0545 29.6245 26.017 29.4063 25.9418C29.2584 25.8861 29.1239 25.8133 29.0027 25.7236C28.7142 25.9442 28.3833 26.0545 28.0099 26.0545C27.8039 26.0545 27.6172 26.0315 27.4499 25.9855C27.433 26.5309 27.2754 26.977 26.9772 27.3236C26.7784 27.5564 26.5215 27.7309 26.2063 27.8473C25.8912 27.9588 25.5336 28.0145 25.1336 28.0145H24.3081C23.9154 28.0145 23.5578 27.9273 23.2354 27.7527C22.913 27.5806 22.6536 27.337 22.4572 27.0218C22.3239 26.8012 22.2281 26.5624 22.1699 26.3055C22.1239 26.097 22.1009 25.8764 22.1009 25.6436C22.1009 25.5855 22.1021 25.5273 22.1045 25.4691C22.1409 24.8606 22.3312 24.2121 22.6754 23.5236L23.7409 24.0509C23.4669 24.6085 23.3178 25.1042 23.2936 25.5382C23.2912 25.5818 23.2899 25.6242 23.2899 25.6655C23.2899 25.9588 23.3505 26.2012 23.4718 26.3927C23.5712 26.5527 23.7057 26.6679 23.8754 26.7382C24.0039 26.7939 24.1481 26.8218 24.3081 26.8218H25.1336C25.5893 26.8218 25.896 26.7467 26.0536 26.5964C26.1918 26.4655 26.2609 26.223 26.2609 25.8691V23.5418H27.4499V24.4255C27.4499 24.7164 27.6099 24.8618 27.9299 24.8618C28.0633 24.8618 28.1687 24.8364 28.2463 24.7855C28.3554 24.7152 28.4099 24.5952 28.4099 24.4255V23.5418H29.6027V24.4255C29.6027 24.5758 29.6305 24.6824 29.6863 24.7455C29.7518 24.823 29.8718 24.8618 30.0463 24.8618C30.3227 24.8618 30.4609 24.7661 30.4609 24.5745C30.4609 24.5333 30.4548 24.4873 30.4427 24.4364C30.3045 23.8667 30.2148 23.4848 30.1736 23.2909L31.3299 23.0145C31.4002 23.3055 31.4912 23.6873 31.6027 24.16ZM28.1881 22.6145C28.0136 22.6145 27.8633 22.5527 27.7372 22.4291C27.6136 22.303 27.5518 22.1515 27.5518 21.9745C27.5518 21.8 27.6136 21.6509 27.7372 21.5273C27.8633 21.4012 28.0136 21.3382 28.1881 21.3382C28.3651 21.3382 28.5154 21.4012 28.639 21.5273C28.7627 21.6509 28.8245 21.8 28.8245 21.9745C28.8245 22.1515 28.7627 22.303 28.639 22.4291C28.5154 22.5527 28.3651 22.6145 28.1881 22.6145ZM29.7881 22.6145C29.6112 22.6145 29.4596 22.5527 29.3336 22.4291C29.2099 22.303 29.1481 22.1515 29.1481 21.9745C29.1481 21.8 29.2099 21.6509 29.3336 21.5273C29.4596 21.4012 29.6112 21.3382 29.7881 21.3382C29.9627 21.3382 30.1118 21.4012 30.2354 21.5273C30.3615 21.6509 30.4245 21.8 30.4245 21.9745C30.4245 22.1515 30.3615 22.303 30.2354 22.4291C30.1118 22.5527 29.9627 22.6145 29.7881 22.6145ZM28.9809 21.3745C28.8257 21.3745 28.6936 21.32 28.5845 21.2109C28.4754 21.1018 28.4209 20.9697 28.4209 20.8145C28.4209 20.6594 28.4754 20.5273 28.5845 20.4182C28.6936 20.3067 28.8257 20.2509 28.9809 20.2509C29.136 20.2509 29.2681 20.3067 29.3772 20.4182C29.4887 20.5273 29.5445 20.6594 29.5445 20.8145C29.5445 20.9697 29.4887 21.1018 29.3772 21.2109C29.2681 21.32 29.136 21.3745 28.9809 21.3745ZM34.3207 24.8655V24.4909C34.3207 24.2679 34.2734 24.0909 34.1788 23.96C34.0843 23.8315 33.9558 23.7673 33.7934 23.7673C33.6285 23.7673 33.4976 23.8315 33.4007 23.96C33.311 24.0788 33.2661 24.2327 33.2661 24.4218C33.2661 24.4436 33.2673 24.4667 33.2697 24.4909C33.277 24.6194 33.334 24.7164 33.4407 24.7818C33.5328 24.8376 33.6504 24.8655 33.7934 24.8655H34.3207ZM33.7934 22.5745C34.3291 22.5745 34.7558 22.7697 35.0734 23.16C35.3667 23.5164 35.5134 23.96 35.5134 24.4909V25.8255C35.5134 26.6691 35.1655 27.2715 34.4697 27.6327C34.2007 27.7733 33.8807 27.8752 33.5097 27.9382C33.2213 27.9891 32.9061 28.0145 32.5643 28.0145V26.8218C33.1704 26.8218 33.6261 26.737 33.9316 26.5673C34.1788 26.4315 34.3025 26.2606 34.3025 26.0545H33.7934C33.3594 26.0545 32.9922 25.9382 32.6916 25.7055C32.3255 25.4242 32.1425 25.0194 32.1425 24.4909C32.1425 23.9891 32.2637 23.5636 32.5061 23.2145C32.8019 22.7879 33.231 22.5745 33.7934 22.5745ZM38.488 23.5382V24.5309C38.488 24.6352 38.5414 24.7188 38.648 24.7818C38.7329 24.8352 38.8189 24.8618 38.9062 24.8618H39.0735V26.0545H38.9062C38.7656 26.0545 38.6165 26.0315 38.4589 25.9855C38.3886 26.5212 38.208 26.9527 37.9171 27.28C37.4929 27.7624 36.8723 28.0036 36.0553 28.0036H35.6953V26.8109H36.0553C36.5014 26.8109 36.8189 26.7103 37.008 26.5091C37.1996 26.3079 37.2953 25.9709 37.2953 25.4982V23.5382H38.488ZM41.6862 23.6036L41.6789 23.52C41.6716 23.4594 41.6644 23.4048 41.6571 23.3564C41.6377 23.2279 41.6098 23.12 41.5735 23.0327C41.4813 22.8024 41.3177 22.6764 41.0826 22.6545L41.0462 22.6509H41.0135C40.8559 22.6509 40.731 22.6982 40.6389 22.7927C40.5565 22.88 40.5153 22.9903 40.5153 23.1236V23.1564C40.525 23.3915 40.6438 23.5442 40.8716 23.6145C41.0147 23.6582 41.2886 23.68 41.6935 23.68L41.6862 23.6036ZM41.0789 21.52C41.7407 21.52 42.2207 21.8097 42.5189 22.3891C42.742 22.8182 42.8535 23.3745 42.8535 24.0582C42.8535 24.7927 42.5723 25.3321 42.0098 25.6764C41.5953 25.9285 41.085 26.0545 40.4789 26.0545H38.9516V24.8618H40.4789C40.8838 24.8618 41.1832 24.8352 41.3771 24.7818C40.822 24.7818 40.3686 24.663 40.0171 24.4255C39.6001 24.1418 39.3916 23.7248 39.3916 23.1745C39.3916 23.0121 39.4147 22.8473 39.4607 22.68C39.5165 22.4764 39.6026 22.2958 39.7189 22.1382C40.0171 21.7261 40.4704 21.52 41.0789 21.52ZM40.8207 20.9964C40.6365 20.9964 40.4789 20.9321 40.348 20.8036C40.2195 20.6727 40.1553 20.5152 40.1553 20.3309C40.1553 20.1467 40.2195 19.9903 40.348 19.8618C40.4789 19.7309 40.6365 19.6655 40.8207 19.6655C41.005 19.6655 41.1613 19.7309 41.2898 19.8618C41.4207 19.9903 41.4862 20.1467 41.4862 20.3309C41.4862 20.5152 41.4207 20.6727 41.2898 20.8036C41.1613 20.9321 41.005 20.9964 40.8207 20.9964Z" fill="white"/>
</svg>
