<svg width="100" height="100" viewBox="0 0 100 100" fill="none" xmlns="http://www.w3.org/2000/svg">
<circle cx="50" cy="50" r="50" fill="white"/>
<path d="M68.1917 63.5315C63.9977 62.0305 56.6303 60.8947 56.6303 45.2483H50.063H48.9392H42.3719C42.3719 60.8947 35.0046 62.0305 30.8105 63.5315C30.8105 74.174 46.2755 74.5011 48.9392 75.4931V75.8384C48.9392 75.8384 49.1464 75.7962 49.5011 75.6856C49.8559 75.7962 50.063 75.8384 50.063 75.8384V75.4931C52.7268 74.5011 68.1917 74.174 68.1917 63.5315Z" fill="#F3D8B6"/>
<path d="M56.6298 45.2483H50.0625H49.4258V75.7083C49.4505 75.7009 49.4743 75.6939 49.5006 75.6856C49.8554 75.7962 50.0625 75.8384 50.0625 75.8384V75.4929C52.7263 74.5011 68.1912 74.1738 68.1912 63.5315C63.9972 62.0305 56.6298 60.8947 56.6298 45.2483Z" fill="#EEC8A2"/>
<path d="M65.4574 36.1941C66.213 34.1999 65.8804 32.2251 64.7145 31.7834C63.5486 31.3416 61.9909 32.6002 61.2353 34.5944C60.4797 36.5887 60.8123 38.5634 61.9782 39.0052C63.1441 39.4469 64.7018 38.1884 65.4574 36.1941Z" fill="#EDCEAE"/>
<path d="M33.2974 36.1938C34.053 38.188 35.6107 39.4465 36.7766 39.0048C37.9425 38.5631 38.2751 36.5883 37.5195 34.5941C36.7639 32.5998 35.2062 31.3413 34.0403 31.783C32.8744 32.2247 32.5418 34.1995 33.2974 36.1938Z" fill="#F3DBC4"/>
<path d="M49.4992 50.6062C43.3309 50.6062 38.6228 45.4119 36.5131 41.5167C34.4034 37.6215 32.9435 23.6673 37.4882 17.4995C41.9386 11.4595 49.4992 14.3904 49.4992 14.3904C49.4992 14.3904 57.0593 11.4595 61.5099 17.4995C66.0542 23.6673 64.5938 37.6215 62.4839 41.5167C60.3737 45.4119 55.6663 50.6062 49.4992 50.6062Z" fill="#F3DBC4"/>
<path d="M61.5108 17.4998C57.06 11.4596 49.5001 14.3907 49.5001 14.3907C49.5001 14.3907 49.4736 14.3806 49.4248 14.3631V50.6045C49.45 50.6047 49.4747 50.6065 49.5001 50.6065C55.6672 50.6065 60.3746 45.4122 62.485 41.517C64.5947 37.6218 66.0553 23.6676 61.5108 17.4998Z" fill="#EDCEAE"/>
<path d="M76.4562 75.8606V85.0006H22.542V75.8606C22.542 69.0234 26.4462 63.0623 31.665 59.9281C33.0227 59.11 36.0888 58.2587 37.6962 57.862C39.0337 57.5276 49.7024 62.9686 49.7024 62.9686C49.7024 62.9686 60.6383 57.7521 61.9758 58.0866C63.5831 58.4834 65.9755 59.1098 67.333 59.9281C72.552 63.0623 76.4562 69.0232 76.4562 75.8606Z" fill="#545465"/>
<path d="M67.3338 59.9279C65.976 59.1099 63.5839 58.4835 61.9766 58.0865C60.6391 57.7521 49.7032 62.9684 49.7032 62.9684C49.7032 62.9684 49.6039 62.9179 49.4248 62.8276V85.0004H76.4567V75.8604C76.4567 69.0235 72.5525 63.0624 67.3338 59.9279Z" fill="#494857"/>
<path d="M54.3689 64.0059L49.5009 62.4705L44.6328 64.0059L47.8488 66.4755L45.8312 85.0001H53.1705L51.1529 66.4755L54.3689 64.0059Z" fill="#D7734A"/>
<path d="M54.3696 64.0059L49.5016 62.4705L49.4268 62.4941V85.0001H53.1712L51.1536 66.4755L54.3696 64.0059Z" fill="#D35D3B"/>
<path d="M60.322 57.0127L49.5 62.2793L38.678 57.0127C36.0943 58.2484 41.0138 65.6483 42.0107 65.2882C44.4738 64.3985 49.5 62.9675 49.5 62.9675C49.5 62.9675 54.5262 64.3985 56.9894 65.2882C57.9862 65.6483 62.9058 58.2484 60.322 57.0127Z" fill="white"/>
<path d="M60.3216 57.0127L49.4996 62.2793L49.4248 62.2429V62.9891C49.4722 62.9754 49.4996 62.9677 49.4996 62.9677C49.4996 62.9677 54.5259 64.3987 56.989 65.2884C57.9859 65.6483 62.9054 58.2484 60.3216 57.0127Z" fill="#DEDDE0"/>
<path d="M53.1326 46.1261L49.4362 45.2483L45.8682 46.1261L46.3809 50.7412C47.3468 51.1348 48.3908 51.3683 49.5007 51.3683C50.6102 51.3683 51.6542 51.1348 52.6199 50.7412L53.1326 46.1261Z" fill="#E1A98C"/>
<path d="M49.4356 45.2483L49.4248 45.251V51.3664C49.45 51.3667 49.4747 51.3685 49.4998 51.3685C50.6093 51.3685 51.6534 51.135 52.619 50.7414L53.1317 46.1261L49.4356 45.2483Z" fill="#D2987B"/>
<path d="M62.2306 15.6891C61.7456 15.7071 59.4712 8.65607 53.4049 10.2288C49.2401 11.3086 48.7144 11.8957 47.087 12.3549C40.4793 10.3297 34.1594 15.6064 34.3939 20.5529C34.7891 28.8816 33.3204 28.7547 34.3277 31.664C35.3349 34.5734 36.2298 36.923 36.2298 36.923C36.2298 36.923 36.4535 37.724 36.9011 33.1363C37.3487 28.5487 35.844 26.0862 39.4033 26.0862C51.188 26.0862 34.9776 30.6633 42.538 30.6633C50.0402 30.6633 55.8395 24.5115 59.3707 24.0641C62.9018 23.6166 61.4254 28.5487 61.873 33.1363C62.3205 37.724 62.5443 36.923 62.5443 36.923C62.5443 36.923 64.5484 34.741 64.4464 31.664C64.3318 28.1919 65.8776 15.5539 62.2306 15.6891Z" fill="#E1A98C"/>
<path d="M62.2314 15.6894C61.7463 15.7073 59.472 8.65631 53.4057 10.229C51.4267 10.7422 50.2701 11.1437 49.4258 11.4735V29.0616C53.6405 27.206 57.0129 24.363 59.3717 24.0642C62.9028 23.6166 61.4264 28.5487 61.874 33.1364C62.3215 37.724 62.5453 36.9231 62.5453 36.9231C62.5453 36.9231 64.5494 34.741 64.4474 31.6641C64.3326 28.1919 65.8784 15.5539 62.2314 15.6894Z" fill="#D2987B"/>
<path d="M65.4574 36.1941C66.213 34.1999 65.8804 32.2251 64.7145 31.7834C63.5486 31.3416 61.9909 32.6002 61.2353 34.5944C60.4797 36.5887 60.8123 38.5634 61.9782 39.0052C63.1441 39.4469 64.7018 38.1884 65.4574 36.1941Z" fill="#EDCEAE"/>
<path d="M33.2974 36.1938C34.053 38.188 35.6107 39.4465 36.7766 39.0048C37.9425 38.5631 38.2751 36.5883 37.5195 34.5941C36.7639 32.5998 35.2062 31.3413 34.0403 31.783C32.8744 32.2247 32.5418 34.1995 33.2974 36.1938Z" fill="#F3DBC4"/>
</svg>
