<svg width="418" height="418" viewBox="0 0 418 418" fill="none" xmlns="http://www.w3.org/2000/svg">
<path opacity="0.15" d="M235.208 131.963L244.154 141.953" stroke="#135677" stroke-width="4" stroke-miterlimit="10" stroke-linecap="round" stroke-linejoin="round"/>
<g opacity="0.6">
<g opacity="0.15">
<g opacity="0.15">
<path opacity="0.15" d="M109.224 137.522H45.4785V292.851H109.224V137.522Z" stroke="#02283F" stroke-width="4" stroke-miterlimit="10" stroke-linecap="round" stroke-linejoin="round"/>
</g>
<path opacity="0.15" d="M59.356 291.764V137.522" stroke="#02283F" stroke-width="4" stroke-miterlimit="10" stroke-linecap="round" stroke-linejoin="round"/>
<path opacity="0.15" d="M96.1401 291.764V137.522" stroke="#02283F" stroke-width="4" stroke-miterlimit="10" stroke-linecap="round" stroke-linejoin="round"/>
<path opacity="0.15" d="M77.748 291.764V137.522" stroke="#02283F" stroke-width="4" stroke-miterlimit="10" stroke-linecap="round" stroke-linejoin="round"/>
<path opacity="0.15" d="M45.562 153.824H109.516" stroke="#02283F" stroke-width="4" stroke-miterlimit="10" stroke-linecap="round" stroke-linejoin="round"/>
<path opacity="0.15" d="M45.562 161.766H109.516" stroke="#02283F" stroke-width="4" stroke-miterlimit="10" stroke-linecap="round" stroke-linejoin="round"/>
<path opacity="0.15" d="M45.562 181.412H109.516" stroke="#02283F" stroke-width="4" stroke-miterlimit="10" stroke-linecap="round" stroke-linejoin="round"/>
<path opacity="0.15" d="M45.562 190.19H109.516" stroke="#02283F" stroke-width="4" stroke-miterlimit="10" stroke-linecap="round" stroke-linejoin="round"/>
<path opacity="0.15" d="M45.562 210.672H109.516" stroke="#02283F" stroke-width="4" stroke-miterlimit="10" stroke-linecap="round" stroke-linejoin="round"/>
<path opacity="0.15" d="M45.562 219.45H109.516" stroke="#02283F" stroke-width="4" stroke-miterlimit="10" stroke-linecap="round" stroke-linejoin="round"/>
<path opacity="0.15" d="M45.562 240.768H109.516" stroke="#02283F" stroke-width="4" stroke-miterlimit="10" stroke-linecap="round" stroke-linejoin="round"/>
<path opacity="0.15" d="M45.562 249.128H109.516" stroke="#02283F" stroke-width="4" stroke-miterlimit="10" stroke-linecap="round" stroke-linejoin="round"/>
<path opacity="0.15" d="M45.562 267.102H109.516" stroke="#02283F" stroke-width="4" stroke-miterlimit="10" stroke-linecap="round" stroke-linejoin="round"/>
<path opacity="0.15" d="M45.562 275.044H109.516" stroke="#02283F" stroke-width="4" stroke-miterlimit="10" stroke-linecap="round" stroke-linejoin="round"/>
<path opacity="0.15" d="M96.349 123.895H59.6904V137.856H96.349V123.895Z" stroke="#02283F" stroke-width="4" stroke-miterlimit="10" stroke-linecap="round" stroke-linejoin="round"/>
<path opacity="0.15" d="M87.822 109.934H68.2178V123.895H87.822V109.934Z" stroke="#02283F" stroke-width="4" stroke-miterlimit="10" stroke-linecap="round" stroke-linejoin="round"/>
</g>
<g opacity="0.15">
<path opacity="0.15" d="M312.789 292.475H286.957V136.937H355.091V292.475H335.027" stroke="#02283F" stroke-width="4" stroke-miterlimit="10" stroke-linecap="round" stroke-linejoin="round"/>
<path opacity="0.15" d="M304.011 151.191H295.777V165.653H304.011V151.191Z" stroke="#02283F" stroke-width="4" stroke-miterlimit="10" stroke-linecap="round" stroke-linejoin="round"/>
<path opacity="0.15" d="M318.098 151.191H309.863V165.653H318.098V151.191Z" stroke="#02283F" stroke-width="4" stroke-miterlimit="10" stroke-linecap="round" stroke-linejoin="round"/>
<path opacity="0.15" d="M332.184 151.191H323.95V165.653H332.184V151.191Z" stroke="#02283F" stroke-width="4" stroke-miterlimit="10" stroke-linecap="round" stroke-linejoin="round"/>
<path opacity="0.15" d="M346.313 151.191H338.079V165.653H346.313V151.191Z" stroke="#02283F" stroke-width="4" stroke-miterlimit="10" stroke-linecap="round" stroke-linejoin="round"/>
<path opacity="0.15" d="M304.011 172.927H295.777V187.39H304.011V172.927Z" stroke="#02283F" stroke-width="4" stroke-miterlimit="10" stroke-linecap="round" stroke-linejoin="round"/>
<path opacity="0.15" d="M318.098 172.927H309.863V187.39H318.098V172.927Z" stroke="#02283F" stroke-width="4" stroke-miterlimit="10" stroke-linecap="round" stroke-linejoin="round"/>
<path opacity="0.15" d="M332.184 172.927H323.95V187.39H332.184V172.927Z" stroke="#02283F" stroke-width="4" stroke-miterlimit="10" stroke-linecap="round" stroke-linejoin="round"/>
<path opacity="0.15" d="M346.313 172.927H338.079V187.39H346.313V172.927Z" stroke="#02283F" stroke-width="4" stroke-miterlimit="10" stroke-linecap="round" stroke-linejoin="round"/>
<path opacity="0.15" d="M304.011 214.309H295.777V226.681H304.011V214.309Z" stroke="#02283F" stroke-width="4" stroke-miterlimit="10" stroke-linecap="round" stroke-linejoin="round"/>
<path opacity="0.15" d="M318.098 214.309H309.863V226.681H318.098V214.309Z" stroke="#02283F" stroke-width="4" stroke-miterlimit="10" stroke-linecap="round" stroke-linejoin="round"/>
<path opacity="0.15" d="M332.184 214.309H323.95V226.681H332.184V214.309Z" stroke="#02283F" stroke-width="4" stroke-miterlimit="10" stroke-linecap="round" stroke-linejoin="round"/>
<path opacity="0.15" d="M346.313 214.309H338.079V226.681H346.313V214.309Z" stroke="#02283F" stroke-width="4" stroke-miterlimit="10" stroke-linecap="round" stroke-linejoin="round"/>
<path opacity="0.15" d="M304.011 258.366H295.777V270.739H304.011V258.366Z" stroke="#02283F" stroke-width="4" stroke-miterlimit="10" stroke-linecap="round" stroke-linejoin="round"/>
<path opacity="0.15" d="M318.098 258.366H309.863V270.739H318.098V258.366Z" stroke="#02283F" stroke-width="4" stroke-miterlimit="10" stroke-linecap="round" stroke-linejoin="round"/>
<path opacity="0.15" d="M332.184 258.366H323.95V270.739H332.184V258.366Z" stroke="#02283F" stroke-width="4" stroke-miterlimit="10" stroke-linecap="round" stroke-linejoin="round"/>
<path opacity="0.15" d="M346.313 258.366H338.079V270.739H346.313V258.366Z" stroke="#02283F" stroke-width="4" stroke-miterlimit="10" stroke-linecap="round" stroke-linejoin="round"/>
<path opacity="0.15" d="M295.526 199.804H346.104" stroke="#02283F" stroke-width="4" stroke-miterlimit="10" stroke-linecap="round" stroke-linejoin="round"/>
<path opacity="0.15" d="M295.526 206.492H346.104" stroke="#02283F" stroke-width="4" stroke-miterlimit="10" stroke-linecap="round" stroke-linejoin="round"/>
<path opacity="0.15" d="M295.526 234.916H346.104" stroke="#02283F" stroke-width="4" stroke-miterlimit="10" stroke-linecap="round" stroke-linejoin="round"/>
<path opacity="0.15" d="M295.526 242.022H346.104" stroke="#02283F" stroke-width="4" stroke-miterlimit="10" stroke-linecap="round" stroke-linejoin="round"/>
<path opacity="0.15" d="M295.526 249.128H346.104" stroke="#02283F" stroke-width="4" stroke-miterlimit="10" stroke-linecap="round" stroke-linejoin="round"/>
<path opacity="0.15" d="M346.104 122.056H299.873V136.937H346.104V122.056Z" stroke="#02283F" stroke-width="4" stroke-miterlimit="10" stroke-linecap="round" stroke-linejoin="round"/>
<path opacity="0.15" d="M336.114 107.175H309.863V122.056H336.114V107.175Z" stroke="#02283F" stroke-width="4" stroke-miterlimit="10" stroke-linecap="round" stroke-linejoin="round"/>
<path opacity="0.15" d="M322.278 107.008V83.6001" stroke="#02283F" stroke-width="4" stroke-miterlimit="10" stroke-linecap="round" stroke-linejoin="round"/>
</g>
<g opacity="0.15">
<path opacity="0.15" d="M252.765 292.6H217.611V141.744L235.209 122.558L252.765 141.744V292.6Z" stroke="#02283F" stroke-width="4" stroke-miterlimit="10" stroke-linecap="round" stroke-linejoin="round"/>
<path opacity="0.15" d="M282.234 292.6H252.765V171.004C252.765 154.033 263.925 151.274 282.234 142.454V292.6Z" stroke="#02283F" stroke-width="4" stroke-miterlimit="10" stroke-linecap="round" stroke-linejoin="round"/>
<g opacity="0.15">
<g opacity="0.15">
<g opacity="0.15">
<path opacity="0.15" d="M263.34 259.16V266.684" stroke="#02283F" stroke-width="4" stroke-miterlimit="10" stroke-linejoin="round"/>
<path opacity="0.15" d="M271.282 259.16V266.684" stroke="#02283F" stroke-width="4" stroke-miterlimit="10" stroke-linejoin="round"/>
</g>
</g>
<g opacity="0.15">
<g opacity="0.15">
<path opacity="0.15" d="M263.34 243.276V250.8" stroke="#02283F" stroke-width="4" stroke-miterlimit="10" stroke-linejoin="round"/>
<path opacity="0.15" d="M271.282 243.276V250.8" stroke="#02283F" stroke-width="4" stroke-miterlimit="10" stroke-linejoin="round"/>
</g>
</g>
<g opacity="0.15">
<g opacity="0.15">
<path opacity="0.15" d="M263.34 227.392V234.916" stroke="#02283F" stroke-width="4" stroke-miterlimit="10" stroke-linejoin="round"/>
<path opacity="0.15" d="M271.282 227.392V234.916" stroke="#02283F" stroke-width="4" stroke-miterlimit="10" stroke-linejoin="round"/>
</g>
</g>
<g opacity="0.15">
<g opacity="0.15">
<path opacity="0.15" d="M263.34 211.508V219.032" stroke="#02283F" stroke-width="4" stroke-miterlimit="10" stroke-linejoin="round"/>
<path opacity="0.15" d="M271.282 211.508V219.032" stroke="#02283F" stroke-width="4" stroke-miterlimit="10" stroke-linejoin="round"/>
</g>
</g>
<g opacity="0.15">
<g opacity="0.15">
<path opacity="0.15" d="M263.34 195.624V203.148" stroke="#02283F" stroke-width="4" stroke-miterlimit="10" stroke-linejoin="round"/>
<path opacity="0.15" d="M271.282 195.624V203.148" stroke="#02283F" stroke-width="4" stroke-miterlimit="10" stroke-linejoin="round"/>
</g>
</g>
<g opacity="0.15">
<g opacity="0.15">
<path opacity="0.15" d="M263.34 179.74V187.264" stroke="#02283F" stroke-width="4" stroke-miterlimit="10" stroke-linejoin="round"/>
<path opacity="0.15" d="M271.282 179.74V187.264" stroke="#02283F" stroke-width="4" stroke-miterlimit="10" stroke-linejoin="round"/>
</g>
</g>
<g opacity="0.15">
<g opacity="0.15">
<path opacity="0.15" d="M263.34 163.856V171.38" stroke="#02283F" stroke-width="4" stroke-miterlimit="10" stroke-linejoin="round"/>
<path opacity="0.15" d="M271.282 163.856V171.38" stroke="#02283F" stroke-width="4" stroke-miterlimit="10" stroke-linejoin="round"/>
</g>
</g>
</g>
<path opacity="0.15" d="M188.017 292.6H217.486V171.004C217.486 154.033 206.325 151.274 188.017 142.454V292.6Z" stroke="#02283F" stroke-width="4" stroke-miterlimit="10" stroke-linecap="round" stroke-linejoin="round"/>
<g opacity="0.15">
<g opacity="0.15">
<g opacity="0.15">
<path opacity="0.15" d="M205.656 259.16V266.684" stroke="#02283F" stroke-width="4" stroke-miterlimit="10" stroke-linejoin="round"/>
<path opacity="0.15" d="M198.132 259.16V266.684" stroke="#02283F" stroke-width="4" stroke-miterlimit="10" stroke-linejoin="round"/>
</g>
</g>
<g opacity="0.15">
<g opacity="0.15">
<path opacity="0.15" d="M205.656 243.276V250.8" stroke="#02283F" stroke-width="4" stroke-miterlimit="10" stroke-linejoin="round"/>
<path opacity="0.15" d="M198.132 243.276V250.8" stroke="#02283F" stroke-width="4" stroke-miterlimit="10" stroke-linejoin="round"/>
</g>
</g>
<g opacity="0.15">
<g opacity="0.15">
<path opacity="0.15" d="M205.656 227.392V234.916" stroke="#02283F" stroke-width="4" stroke-miterlimit="10" stroke-linejoin="round"/>
<path opacity="0.15" d="M198.132 227.392V234.916" stroke="#02283F" stroke-width="4" stroke-miterlimit="10" stroke-linejoin="round"/>
</g>
</g>
<g opacity="0.15">
<g opacity="0.15">
<path opacity="0.15" d="M205.656 211.508V219.032" stroke="#02283F" stroke-width="4" stroke-miterlimit="10" stroke-linejoin="round"/>
<path opacity="0.15" d="M198.132 211.508V219.032" stroke="#02283F" stroke-width="4" stroke-miterlimit="10" stroke-linejoin="round"/>
</g>
</g>
<g opacity="0.15">
<g opacity="0.15">
<path opacity="0.15" d="M205.656 195.624V203.148" stroke="#02283F" stroke-width="4" stroke-miterlimit="10" stroke-linejoin="round"/>
<path opacity="0.15" d="M198.132 195.624V203.148" stroke="#02283F" stroke-width="4" stroke-miterlimit="10" stroke-linejoin="round"/>
</g>
</g>
<g opacity="0.15">
<g opacity="0.15">
<path opacity="0.15" d="M205.656 179.74V187.264" stroke="#02283F" stroke-width="4" stroke-miterlimit="10" stroke-linejoin="round"/>
<path opacity="0.15" d="M198.132 179.74V187.264" stroke="#02283F" stroke-width="4" stroke-miterlimit="10" stroke-linejoin="round"/>
</g>
</g>
<g opacity="0.15">
<g opacity="0.15">
<path opacity="0.15" d="M205.656 163.856V171.38" stroke="#02283F" stroke-width="4" stroke-miterlimit="10" stroke-linejoin="round"/>
<path opacity="0.15" d="M198.132 163.856V171.38" stroke="#02283F" stroke-width="4" stroke-miterlimit="10" stroke-linejoin="round"/>
</g>
</g>
</g>
<path opacity="0.15" d="M228.228 147.136V255.398" stroke="#02283F" stroke-width="4" stroke-miterlimit="10" stroke-linecap="round" stroke-linejoin="round"/>
<path opacity="0.15" d="M243.276 147.136V255.398" stroke="#02283F" stroke-width="4" stroke-miterlimit="10" stroke-linecap="round" stroke-linejoin="round"/>
<g opacity="0.15">
<g opacity="0.15">
<path opacity="0.15" d="M223.463 252.472H246.662" stroke="#02283F" stroke-width="4" stroke-miterlimit="10" stroke-linecap="round" stroke-linejoin="round"/>
</g>
<g opacity="0.15">
<path opacity="0.15" d="M223.463 236.588H246.662" stroke="#02283F" stroke-width="4" stroke-miterlimit="10" stroke-linecap="round" stroke-linejoin="round"/>
</g>
<g opacity="0.15">
<path opacity="0.15" d="M223.463 220.704H246.662" stroke="#02283F" stroke-width="4" stroke-miterlimit="10" stroke-linecap="round" stroke-linejoin="round"/>
</g>
<g opacity="0.15">
<path opacity="0.15" d="M223.463 204.82H246.662" stroke="#02283F" stroke-width="4" stroke-miterlimit="10" stroke-linecap="round" stroke-linejoin="round"/>
</g>
<g opacity="0.15">
<path opacity="0.15" d="M223.463 188.936H246.662" stroke="#02283F" stroke-width="4" stroke-miterlimit="10" stroke-linecap="round" stroke-linejoin="round"/>
</g>
<g opacity="0.15">
<path opacity="0.15" d="M223.463 173.052H246.662" stroke="#02283F" stroke-width="4" stroke-miterlimit="10" stroke-linecap="round" stroke-linejoin="round"/>
</g>
<g opacity="0.15">
<path opacity="0.15" d="M223.463 157.168H246.662" stroke="#02283F" stroke-width="4" stroke-miterlimit="10" stroke-linecap="round" stroke-linejoin="round"/>
</g>
</g>
</g>
<g opacity="0.15">
<path opacity="0.15" d="M181.37 122.558H119.882V292.475H181.37V122.558Z" stroke="#02283F" stroke-width="4" stroke-miterlimit="10" stroke-linecap="round" stroke-linejoin="round"/>
<path opacity="0.15" d="M135.307 135.181H128.075V255.816H135.307V135.181Z" stroke="#02283F" stroke-width="4" stroke-miterlimit="10" stroke-linecap="round" stroke-linejoin="round"/>
<path opacity="0.15" d="M148.097 135.181H140.866V255.816H148.097V135.181Z" stroke="#02283F" stroke-width="4" stroke-miterlimit="10" stroke-linecap="round" stroke-linejoin="round"/>
<path opacity="0.15" d="M160.93 135.181H153.699V255.816H160.93V135.181Z" stroke="#02283F" stroke-width="4" stroke-miterlimit="10" stroke-linecap="round" stroke-linejoin="round"/>
<path opacity="0.15" d="M173.721 135.181H166.489V255.816H173.721V135.181Z" stroke="#02283F" stroke-width="4" stroke-miterlimit="10" stroke-linecap="round" stroke-linejoin="round"/>
<path opacity="0.15" d="M173.721 105.336H153.699V122.558H173.721V105.336Z" stroke="#02283F" stroke-width="4" stroke-miterlimit="10" stroke-linecap="round" stroke-linejoin="round"/>
<path opacity="0.15" d="M163.02 105.336V90.2881" stroke="#02283F" stroke-width="4" stroke-miterlimit="10" stroke-linecap="round" stroke-linejoin="round"/>
<path opacity="0.15" d="M146.258 111.313H127.281V122.558H146.258V111.313Z" stroke="#02283F" stroke-width="4" stroke-miterlimit="10" stroke-linecap="round" stroke-linejoin="round"/>
</g>
</g>
<path d="M87.6963 162.393C84.0597 159.467 78.9183 159.467 75.2817 162.393C62.7417 172.592 47.6519 192.614 49.4493 215.855C49.9091 221.498 51.2885 226.89 53.2531 232.032C53.3785 232.408 53.5457 232.742 53.7547 233.119C66.9635 257.822 96.0145 257.822 109.181 233.119C109.349 232.784 109.516 232.408 109.683 232.032C111.689 226.932 113.069 221.498 113.487 215.855C115.368 192.573 100.278 172.592 87.6963 162.393Z" fill="#FFBF73"/>
<path opacity="0.43" d="M98.1047 236.881C83.4747 236.881 71.6453 218.363 71.6453 195.498C71.6453 180.743 76.5777 167.827 84.0181 160.47C81.0503 159.676 77.8317 160.303 75.3237 162.351C62.7837 172.55 47.6939 192.572 49.4913 215.813C49.9511 221.456 51.3305 226.849 53.2951 231.99C53.4205 232.366 53.5877 232.701 53.7967 233.077C67.0055 257.781 96.0565 257.781 109.223 233.077C109.223 233.077 109.223 233.035 109.265 233.035C105.879 235.501 102.076 236.881 98.1047 236.881Z" fill="#FFBF73"/>
<path d="M81.5098 291.764V202.73" stroke="#135677" stroke-width="4" stroke-miterlimit="10" stroke-linecap="round" stroke-linejoin="round"/>
<path d="M40.9639 292.976C40.9639 279.851 51.6229 269.192 64.7481 269.192C77.8733 269.192 88.5323 279.851 88.5323 292.976" fill="#FFBF73"/>
<path opacity="0.43" d="M71.2691 270.111C69.2209 269.526 67.0473 269.192 64.7901 269.192C51.6649 269.192 41.0059 279.851 41.0059 292.976H54.0057C53.9639 282.108 61.2789 272.912 71.2691 270.111Z" fill="#FFBF73"/>
<path d="M119.381 262.588C118.587 255.816 119.715 240.768 123.018 230.778C125.191 224.215 127.198 215.228 136.143 210.254C143.5 206.116 191.152 202.73 217.82 205.447C232.701 206.952 245.032 221.54 252.723 233.662C278.054 238.302 278.681 238.302 284.616 240.141C290.552 241.938 296.362 246.495 296.362 253.308C296.362 257.697 296.362 269.903 296.362 269.903H120.092C119.841 265.723 119.632 266.726 119.381 262.588Z" fill="#4DCBAB"/>
<path opacity="0.49" d="M285.034 238.845C279.099 237.048 278.472 237.048 253.141 232.366C245.45 220.244 233.119 205.656 218.238 204.151C191.57 201.434 143.918 204.82 136.561 208.958C134.554 210.087 132.924 211.424 131.503 212.846C131.503 212.846 131.545 212.846 131.545 212.804C138.902 208.666 186.554 205.28 213.222 207.997C227.225 209.418 239.974 222.46 247.791 234.08C248.71 235.459 250.173 236.379 251.803 236.672C274.501 240.852 274.25 240.893 280.018 242.649C285.954 244.446 291.764 249.003 291.764 255.816C291.764 258.617 291.764 264.594 291.764 268.523H296.78C296.78 268.523 296.78 256.318 296.78 251.929C296.78 245.199 290.97 240.643 285.034 238.845Z" fill="#4DCBAB"/>
<path opacity="0.21" d="M215.27 231.447V268.69" stroke="#72757C" stroke-width="5" stroke-miterlimit="10" stroke-linecap="round"/>
<path opacity="0.21" d="M156.75 231.447L155.789 268.69" stroke="#72757C" stroke-width="5" stroke-miterlimit="10" stroke-linecap="round"/>
<path opacity="0.2" d="M135.767 230.778C137.94 224.215 139.947 215.228 148.892 210.254C153.95 207.412 177.943 204.945 201.142 204.527C174.808 204.026 142.162 206.868 136.143 210.254C127.198 215.27 125.191 224.215 123.018 230.778C119.715 240.768 118.629 255.816 119.381 262.588C119.632 266.726 119.841 265.723 120.092 269.903H132.841C132.59 265.723 132.381 266.726 132.13 262.588C131.336 255.816 132.464 240.768 135.767 230.778Z" fill="#72757C"/>
<path d="M119.381 262.588C118.587 255.816 119.715 240.768 123.018 230.778C125.191 224.215 127.198 215.228 136.143 210.254C143.5 206.116 191.152 202.73 217.82 205.447C231.781 206.868 243.485 219.784 251.218 231.363C252.221 232.826 253.768 233.871 255.524 234.164C278.096 238.302 278.89 238.385 284.616 240.099C290.552 241.897 296.362 246.453 296.362 253.266C296.362 257.655 296.362 269.861 296.362 269.861H120.092C119.841 265.723 119.632 266.726 119.381 262.588Z" stroke="#135677" stroke-width="5" stroke-miterlimit="10" stroke-linecap="round" stroke-linejoin="round"/>
<path d="M215.312 233.787C212.219 223.797 206.868 215.103 202.981 209.627C208.373 209.836 213.138 210.212 217.235 210.672C229.608 212.135 239.807 223.839 246.62 234.289L215.312 233.787Z" fill="#FFC88D"/>
<path opacity="0.2" d="M221.624 225.511C219.325 221.331 222.627 216.315 227.35 216.775C228.228 216.858 229.064 216.942 229.9 217.067C230.611 217.151 231.321 217.276 231.99 217.444C227.559 213.891 222.585 211.341 217.235 210.714C213.138 210.212 208.331 209.878 202.981 209.669C206.868 215.145 212.219 223.839 215.312 233.829L225.72 233.996C224.466 230.945 223.045 228.103 221.624 225.511Z" fill="#FFBF73"/>
<path d="M215.312 233.787C212.219 223.797 206.868 215.103 202.981 209.627C208.373 209.836 213.138 210.212 217.235 210.672C229.608 212.135 239.807 223.839 246.62 234.289L215.312 233.787Z" stroke="#135677" stroke-width="5" stroke-miterlimit="10" stroke-linecap="round" stroke-linejoin="round"/>
<path d="M160.93 233.369L162.728 211.132C172.467 210.421 183.21 210.087 193.074 210.128C194.119 210.128 195.164 210.128 196.168 210.17C199.93 214.852 206.116 223.504 209.753 233.662L160.93 233.369Z" fill="#FFC88D"/>
<path opacity="0.2" d="M168.496 222.376C168.789 218.53 172.3 215.479 176.689 215.228C183.92 214.852 191.402 214.685 198.467 214.727C198.843 214.727 199.219 214.727 199.637 214.727C198.383 212.929 197.213 211.383 196.168 210.129C195.123 210.129 194.119 210.087 193.074 210.087C183.21 210.045 172.467 210.379 162.728 211.09L160.93 233.328L167.618 233.369L168.496 222.376Z" fill="#FFBF73"/>
<path d="M160.93 233.369L162.728 211.132C172.467 210.421 183.21 210.087 193.074 210.128C194.119 210.128 195.164 210.128 196.168 210.17C199.93 214.852 206.116 223.504 209.753 233.662L160.93 233.369Z" stroke="#135677" stroke-width="5" stroke-miterlimit="10" stroke-linecap="round" stroke-linejoin="round"/>
<path d="M149.143 275.378H118.462C114.323 275.378 110.938 271.993 110.938 267.854C110.938 263.716 114.323 260.33 118.462 260.33H149.143V275.378Z" fill="white"/>
<path opacity="0.2" d="M119.883 269.861C119.883 265.722 123.268 262.337 127.407 262.337H149.101V260.372H118.42C114.281 260.372 110.896 263.758 110.896 267.896C110.896 272.034 114.281 275.42 118.42 275.42H122.349C120.844 274.041 119.883 272.034 119.883 269.861Z" fill="#72757C"/>
<path d="M149.143 275.378H118.462C114.323 275.378 110.938 271.993 110.938 267.854C110.938 263.716 114.323 260.33 118.462 260.33H149.143V275.378V275.378Z" stroke="#135677" stroke-width="5" stroke-miterlimit="10" stroke-linecap="round" stroke-linejoin="round"/>
<path d="M297.616 275.378H272.494V262.838H297.616C301.085 262.838 303.886 265.639 303.886 269.108C303.886 272.578 301.085 275.378 297.616 275.378Z" fill="white"/>
<path opacity="0.2" d="M274.125 267.687H299.288C301.086 267.687 302.716 268.481 303.886 269.694C303.886 269.485 303.928 269.317 303.928 269.108C303.928 265.639 301.127 262.838 297.658 262.838H272.536V275.378H274.208V267.687H274.125Z" fill="#72757C"/>
<path d="M297.616 275.378H272.494V262.838H297.616C301.085 262.838 303.886 265.639 303.886 269.108C303.886 272.578 301.085 275.378 297.616 275.378Z" stroke="#135677" stroke-width="5" stroke-miterlimit="10" stroke-linecap="round" stroke-linejoin="round"/>
<path d="M240.518 268.69H162.979V275.378H240.518V268.69Z" fill="white"/>
<path opacity="0.2" d="M240.518 268.69H162.979V272.034H240.518V268.69Z" fill="#72757C"/>
<path d="M240.518 268.69H162.979V275.378H240.518V268.69Z" stroke="#135677" stroke-width="5" stroke-miterlimit="10" stroke-linecap="round" stroke-linejoin="round"/>
<path d="M259.286 292.433C269.559 292.433 277.887 284.105 277.887 273.832C277.887 263.559 269.559 255.231 259.286 255.231C249.013 255.231 240.685 263.559 240.685 273.832C240.685 284.105 249.013 292.433 259.286 292.433Z" fill="#82818C"/>
<path d="M259.286 292.433C269.559 292.433 277.887 284.105 277.887 273.832C277.887 263.559 269.559 255.231 259.286 255.231C249.013 255.231 240.685 263.559 240.685 273.832C240.685 284.105 249.013 292.433 259.286 292.433Z" stroke="#135677" stroke-width="5" stroke-miterlimit="10" stroke-linecap="round" stroke-linejoin="round"/>
<path d="M259.286 283.906C264.849 283.906 269.36 279.395 269.36 273.832C269.36 268.268 264.849 263.758 259.286 263.758C253.722 263.758 249.212 268.268 249.212 273.832C249.212 279.395 253.722 283.906 259.286 283.906Z" fill="white"/>
<path d="M259.286 283.906C264.849 283.906 269.36 279.395 269.36 273.832C269.36 268.268 264.849 263.758 259.286 263.758C253.722 263.758 249.212 268.268 249.212 273.832C249.212 279.395 253.722 283.906 259.286 283.906Z" stroke="#135677" stroke-width="5" stroke-miterlimit="10" stroke-linecap="round" stroke-linejoin="round"/>
<path d="M259.286 276.925C260.994 276.925 262.379 275.54 262.379 273.832C262.379 272.123 260.994 270.739 259.286 270.739C257.577 270.739 256.192 272.123 256.192 273.832C256.192 275.54 257.577 276.925 259.286 276.925Z" stroke="#135677" stroke-width="5" stroke-miterlimit="10" stroke-linecap="round" stroke-linejoin="round"/>
<path d="M151.483 292.433C161.756 292.433 170.084 284.105 170.084 273.832C170.084 263.559 161.756 255.231 151.483 255.231C141.21 255.231 132.882 263.559 132.882 273.832C132.882 284.105 141.21 292.433 151.483 292.433Z" fill="#82818C"/>
<path d="M151.483 292.433C161.756 292.433 170.084 284.105 170.084 273.832C170.084 263.559 161.756 255.231 151.483 255.231C141.21 255.231 132.882 263.559 132.882 273.832C132.882 284.105 141.21 292.433 151.483 292.433Z" stroke="#135677" stroke-width="5" stroke-miterlimit="10" stroke-linecap="round" stroke-linejoin="round"/>
<path d="M151.483 283.906C157.047 283.906 161.557 279.395 161.557 273.832C161.557 268.268 157.047 263.758 151.483 263.758C145.92 263.758 141.41 268.268 141.41 273.832C141.41 279.395 145.92 283.906 151.483 283.906Z" fill="white"/>
<path d="M151.483 283.906C157.047 283.906 161.557 279.395 161.557 273.832C161.557 268.268 157.047 263.758 151.483 263.758C145.92 263.758 141.41 268.268 141.41 273.832C141.41 279.395 145.92 283.906 151.483 283.906Z" stroke="#135677" stroke-width="5" stroke-miterlimit="10" stroke-linecap="round" stroke-linejoin="round"/>
<path d="M151.483 276.925C153.192 276.925 154.577 275.54 154.577 273.832C154.577 272.123 153.192 270.739 151.483 270.739C149.775 270.739 148.39 272.123 148.39 273.832C148.39 275.54 149.775 276.925 151.483 276.925Z" stroke="#135677" stroke-width="5" stroke-miterlimit="10" stroke-linecap="round" stroke-linejoin="round"/>
<path d="M157.502 210.714C146.425 211.884 140.741 213.347 139.069 214.35C132.506 218.363 130.5 225.135 128.744 231.112C128.535 231.781 128.368 232.408 128.159 233.035C128.117 233.202 128.075 233.369 127.992 233.536H155.956L157.502 210.714Z" fill="#FFC88D"/>
<path opacity="0.2" d="M135.14 233.286C136.895 227.308 138.86 220.537 145.464 216.524C146.76 215.73 150.522 214.685 157.335 213.723L157.544 210.714C146.467 211.884 140.783 213.347 139.111 214.35C132.548 218.363 130.542 225.135 128.786 231.112C128.577 231.781 128.41 232.408 128.201 233.035C128.159 233.202 128.117 233.369 128.034 233.536H135.014C135.098 233.453 135.098 233.369 135.14 233.286Z" fill="#FFBF73"/>
<path d="M157.502 210.714C146.425 211.884 140.741 213.347 139.069 214.35C132.506 218.363 130.5 225.135 128.744 231.112C128.535 231.781 128.368 232.408 128.159 233.035C128.117 233.202 128.075 233.369 127.992 233.536H155.956L157.502 210.714Z" stroke="#135677" stroke-width="5" stroke-miterlimit="10" stroke-linecap="round" stroke-linejoin="round"/>
<path d="M299.748 249.88C300.208 252.723 297.574 255.063 293.394 255.44C289.423 255.816 284.867 254.06 284.115 251.218C283.655 248.375 288.42 245.826 292.433 245.449C296.404 245.073 299.205 247.038 299.748 249.88Z" fill="white"/>
<path d="M299.748 249.88C300.208 252.723 297.574 255.063 293.394 255.44C289.423 255.816 284.867 254.06 284.115 251.218C283.655 248.375 288.42 245.826 292.433 245.449C296.404 245.073 299.205 247.038 299.748 249.88Z" stroke="#135677" stroke-width="5" stroke-miterlimit="10" stroke-linecap="round" stroke-linejoin="round"/>
<path d="M227.392 241.061H219.45" stroke="#135677" stroke-width="5" stroke-miterlimit="10" stroke-linecap="round" stroke-linejoin="round"/>
<path d="M170.126 241.061H161.766" stroke="#135677" stroke-width="5" stroke-miterlimit="10" stroke-linecap="round" stroke-linejoin="round"/>
<path d="M90.2044 190.399C88.6996 192.113 88.3234 194.412 88.9086 196.46C90.8314 196.544 92.7542 195.791 94.0918 194.245C95.5966 192.531 95.9728 190.232 95.3876 188.184C93.5066 188.1 91.5838 188.852 90.2044 190.399Z" stroke="#135677" stroke-width="6" stroke-miterlimit="10" stroke-linecap="round" stroke-linejoin="round"/>
<path d="M78.5841 177.692C78.5005 179.907 79.5873 181.872 81.3011 183.084C82.8059 181.955 83.8091 180.242 83.8927 178.235C83.9763 176.02 82.8895 174.055 81.1757 172.843C79.6709 173.93 78.6677 175.685 78.5841 177.692Z" stroke="#135677" stroke-width="6" stroke-miterlimit="10" stroke-linecap="round" stroke-linejoin="round"/>
<path d="M66.0858 197.003C66.671 199.219 68.3012 200.849 70.3494 201.518C71.478 199.971 71.9796 197.965 71.4362 195.958C70.851 193.743 69.2208 192.113 67.1726 191.444C66.0022 192.991 65.5424 195.039 66.0858 197.003Z" stroke="#135677" stroke-width="6" stroke-miterlimit="10" stroke-linecap="round" stroke-linejoin="round"/>
<path d="M38.5395 246.327C38.0379 248.543 38.7903 250.758 40.2951 252.305C42.0089 251.469 43.3465 249.88 43.8063 247.874C44.3079 245.658 43.5555 243.443 42.0507 241.896C40.2951 242.732 38.9993 244.321 38.5395 246.327Z" stroke="#135677" stroke-width="3" stroke-miterlimit="10" stroke-linecap="round" stroke-linejoin="round"/>
<path d="M94.1753 228.521C92.6705 229.858 92.0435 231.865 92.3361 233.746C94.0081 234.038 95.8055 233.578 97.1849 232.324C98.6897 230.987 99.3167 228.98 99.0241 227.099C97.3103 226.849 95.5129 227.308 94.1753 228.521Z" stroke="#135677" stroke-width="6" stroke-miterlimit="10" stroke-linecap="round" stroke-linejoin="round"/>
<path d="M68.6772 224.884C68.6772 224.884 72.5228 235.209 81.5098 235.877" stroke="#135677" stroke-width="8" stroke-miterlimit="10" stroke-linecap="round" stroke-linejoin="round"/>
<path d="M81.4683 225.135C81.4683 225.135 89.6193 221.624 90.2881 213.055" stroke="#135677" stroke-width="8" stroke-miterlimit="10" stroke-linecap="round" stroke-linejoin="round"/>
<path d="M60.1083 291.346C57.9765 285.41 52.2917 281.188 45.6037 281.188C38.9157 281.188 33.2727 285.41 31.0991 291.346H60.1083Z" fill="#FFBF73"/>
<path d="M50.8705 282.108C49.2403 281.523 47.4847 281.188 45.6037 281.188C38.9157 281.188 33.2727 285.41 31.0991 291.346H41.5909C43.1793 287.04 46.5651 283.655 50.8705 282.108Z" fill="#FFAA58"/>
<path d="M111.815 292.475H28.4658" stroke="#135677" stroke-width="4" stroke-miterlimit="10" stroke-linecap="round" stroke-linejoin="round"/>
<path d="M312.789 292.475H118.294" stroke="#135677" stroke-width="4" stroke-miterlimit="10" stroke-linecap="round" stroke-linejoin="round"/>
<path d="M327.169 292.475H321.442" stroke="#135677" stroke-width="4" stroke-miterlimit="10" stroke-linecap="round" stroke-linejoin="round"/>
<path d="M389.534 292.475H334.316" stroke="#135677" stroke-width="4" stroke-miterlimit="10" stroke-linecap="round" stroke-linejoin="round"/>
<path d="M64.79 278.388V291.346" stroke="#135677" stroke-width="4" stroke-miterlimit="10" stroke-linecap="round" stroke-linejoin="round"/>
<path d="M73.0246 283.404L64.79 291.346" stroke="#135677" stroke-width="4" stroke-miterlimit="10" stroke-linecap="round" stroke-linejoin="round"/>
<path d="M370.766 184.756V291.346" stroke="#135677" stroke-width="3" stroke-miterlimit="10" stroke-linecap="round" stroke-linejoin="round"/>
<path d="M351.831 165.988L370.766 184.881" stroke="#135677" stroke-width="3" stroke-miterlimit="10" stroke-linecap="round" stroke-linejoin="round"/>
<path d="M364.269 184.681L349.638 170.05L343.845 175.843L358.476 190.474L364.269 184.681Z" fill="#FFBF73"/>
<path d="M364.269 184.681L349.638 170.05L343.845 175.843L358.476 190.474L364.269 184.681Z" stroke="#135677" stroke-width="3" stroke-miterlimit="10" stroke-linecap="round" stroke-linejoin="round"/>
<path d="M376.075 204.82V291.346" stroke="#135677" stroke-width="3" stroke-miterlimit="10" stroke-linecap="round" stroke-linejoin="round"/>
<path d="M394.968 186.052L376.075 204.945" stroke="#135677" stroke-width="3" stroke-miterlimit="10" stroke-linecap="round" stroke-linejoin="round"/>
<path d="M388.34 210.509L402.97 195.879L397.177 190.086L382.547 204.716L388.34 210.509Z" fill="#FFBF73"/>
<path d="M388.34 210.509L402.97 195.879L397.177 190.086L382.547 204.716L388.34 210.509Z" stroke="#135677" stroke-width="3" stroke-miterlimit="10" stroke-linecap="round" stroke-linejoin="round"/>
<path d="M209 64.6228V74.2786" stroke="#CCE1EA" stroke-width="4" stroke-miterlimit="10" stroke-linecap="round" stroke-linejoin="round"/>
<path d="M200.306 66.1694L203.608 75.24" stroke="#CCE1EA" stroke-width="4" stroke-miterlimit="10" stroke-linecap="round" stroke-linejoin="round"/>
<path d="M192.614 70.5583L198.842 77.9988" stroke="#CCE1EA" stroke-width="4" stroke-miterlimit="10" stroke-linecap="round" stroke-linejoin="round"/>
<path d="M186.93 77.3718L195.331 82.1788" stroke="#CCE1EA" stroke-width="4" stroke-miterlimit="10" stroke-linecap="round" stroke-linejoin="round"/>
<path d="M183.92 85.6482L193.45 87.362" stroke="#CCE1EA" stroke-width="4" stroke-miterlimit="10" stroke-linecap="round" stroke-linejoin="round"/>
<path d="M183.92 94.5099L193.45 92.8379" stroke="#CCE1EA" stroke-width="4" stroke-miterlimit="10" stroke-linecap="round" stroke-linejoin="round"/>
<path d="M186.93 102.828L195.331 97.9792" stroke="#CCE1EA" stroke-width="4" stroke-miterlimit="10" stroke-linecap="round" stroke-linejoin="round"/>
<path d="M192.614 109.6L198.842 102.201" stroke="#CCE1EA" stroke-width="4" stroke-miterlimit="10" stroke-linecap="round" stroke-linejoin="round"/>
<path d="M200.306 114.03L203.608 104.918" stroke="#CCE1EA" stroke-width="4" stroke-miterlimit="10" stroke-linecap="round" stroke-linejoin="round"/>
<path d="M209 115.535V105.879" stroke="#CCE1EA" stroke-width="4" stroke-miterlimit="10" stroke-linecap="round" stroke-linejoin="round"/>
<path d="M217.694 114.03L214.392 104.918" stroke="#CCE1EA" stroke-width="4" stroke-miterlimit="10" stroke-linecap="round" stroke-linejoin="round"/>
<path d="M225.385 109.6L219.157 102.201" stroke="#CCE1EA" stroke-width="4" stroke-miterlimit="10" stroke-linecap="round" stroke-linejoin="round"/>
<path d="M231.07 102.828L222.668 97.9792" stroke="#CCE1EA" stroke-width="4" stroke-miterlimit="10" stroke-linecap="round" stroke-linejoin="round"/>
<path d="M234.08 94.5099L224.549 92.8379" stroke="#CCE1EA" stroke-width="4" stroke-miterlimit="10" stroke-linecap="round" stroke-linejoin="round"/>
<path d="M234.08 85.6482L224.549 87.362" stroke="#CCE1EA" stroke-width="4" stroke-miterlimit="10" stroke-linecap="round" stroke-linejoin="round"/>
<path d="M231.07 77.3718L222.668 82.1788" stroke="#CCE1EA" stroke-width="4" stroke-miterlimit="10" stroke-linecap="round" stroke-linejoin="round"/>
<path d="M225.385 70.5583L219.157 77.9988" stroke="#CCE1EA" stroke-width="4" stroke-miterlimit="10" stroke-linecap="round" stroke-linejoin="round"/>
<path d="M217.694 66.1694L214.392 75.24" stroke="#CCE1EA" stroke-width="4" stroke-miterlimit="10" stroke-linecap="round" stroke-linejoin="round"/>
<path d="M209 98.7733C213.802 98.7733 217.694 94.8807 217.694 90.0789C217.694 85.2771 213.802 81.3845 209 81.3845C204.198 81.3845 200.306 85.2771 200.306 90.0789C200.306 94.8807 204.198 98.7733 209 98.7733Z" fill="#FFBF73"/>
<path d="M338.037 68.343C338.079 68.0504 338.079 67.716 338.079 67.4234C338.079 61.237 333.063 56.2628 326.918 56.2628C324.535 56.2628 322.32 57.0152 320.523 58.2692C319.185 53.5876 314.88 50.2018 309.78 50.2018C308.902 50.2018 308.066 50.2854 307.23 50.4944C304.43 47.3594 300.333 45.353 295.777 45.353C287.96 45.353 281.481 51.205 280.52 58.7708C280.353 58.7708 280.186 58.729 279.977 58.729C275.17 58.729 271.282 62.6164 271.282 67.4234C271.282 67.716 271.282 68.0504 271.324 68.343H338.037V68.343Z" stroke="#CCE1EA" stroke-width="4" stroke-miterlimit="10" stroke-linecap="round" stroke-linejoin="round"/>
<path d="M79.9214 72.7739C78.0404 70.0987 74.9054 68.3013 71.3524 68.3013C70.5164 68.3013 69.7222 68.3849 68.9698 68.5939C66.3364 65.6679 62.4908 63.7869 58.2272 63.7869C50.9122 63.7869 44.8512 69.2627 43.9734 76.3269C43.8062 76.3269 43.639 76.2851 43.4718 76.2851C38.9992 76.2851 35.3208 79.9217 35.3208 84.4361C35.3208 84.7287 35.3208 85.0213 35.3626 85.3139H77.9568" stroke="#CCE1EA" stroke-width="4" stroke-miterlimit="10" stroke-linecap="round" stroke-linejoin="round"/>
<path d="M113.696 88.7415H149.686" stroke="#CCE1EA" stroke-width="4" stroke-miterlimit="10" stroke-linecap="round" stroke-linejoin="round"/>
<path d="M138.441 97.9792H147.178" stroke="#CCE1EA" stroke-width="4" stroke-miterlimit="10" stroke-linecap="round" stroke-linejoin="round"/>
<path d="M128.451 92.8379H144.586" stroke="#CCE1EA" stroke-width="4" stroke-miterlimit="10" stroke-linecap="round" stroke-linejoin="round"/>
<path d="M220.453 38.874H247.707" stroke="#CCE1EA" stroke-width="4" stroke-miterlimit="10" stroke-linecap="round" stroke-linejoin="round"/>
<path d="M235.208 45.353H267.52" stroke="#CCE1EA" stroke-width="4" stroke-miterlimit="10" stroke-linecap="round" stroke-linejoin="round"/>
<path d="M107.468 85.3137C107.844 84.4359 108.053 83.4745 108.053 82.4295C108.053 78.5421 104.96 75.4071 101.114 75.4071C100.153 75.4071 99.2334 75.6161 98.3974 75.9505C96.8508 71.8123 92.8798 68.8445 88.24 68.8445C82.6806 68.8445 78.1244 73.0245 77.4974 78.3749C77.0376 78.2913 76.5778 78.2077 76.118 78.2077C72.6068 78.2077 69.8062 80.9665 69.8062 84.3523C69.8062 84.6449 69.848 84.9793 69.8898 85.2719H107.468V85.3137Z" stroke="#CCE1EA" stroke-width="4" stroke-miterlimit="10" stroke-linecap="round" stroke-linejoin="round"/>
</svg>
