  <svg width="180" height="72" viewBox="0 0 202 72" fill="none" xmlns="http://www.w3.org/2000/svg">
            <path d="M61 37.3068V35.1591H62.5682C63.3485 35.1591 64.0227 35.0644 64.5909 34.875C65.1667 34.6932 65.6402 34.4091 66.0114 34.0227C66.3902 33.6364 66.6667 33.1439 66.8409 32.5455C67.0227 31.947 67.1136 31.2348 67.1136 30.4091V23.3182H69.2614V30.4091C69.2614 31.4924 69.1174 32.4583 68.8295 33.3068C68.5492 34.1629 68.1288 34.8864 67.5682 35.4773C67.0076 36.0682 66.3068 36.5189 65.4659 36.8295C64.6326 37.1477 63.6667 37.3068 62.5682 37.3068H61ZM77.6023 31C76.8068 30.9924 76.1477 30.9394 75.625 30.8409C75.1098 30.7348 74.6705 30.5871 74.3068 30.3977C73.9508 30.2008 73.6629 29.9583 73.4432 29.6705C73.2311 29.375 73.0644 29.0341 72.9432 28.6477C72.822 28.2538 72.7424 27.8144 72.7045 27.3295C72.6667 26.8447 72.6477 26.3068 72.6477 25.7159V14.7841H74.7955V25.7159C74.7955 26.375 74.8144 26.9091 74.8523 27.3182C74.8977 27.7273 75.0076 28.0455 75.1818 28.2727C75.3636 28.4924 75.6326 28.6439 75.9886 28.7273C76.3523 28.803 76.8902 28.8447 77.6023 28.8523V31ZM77.1205 31V28.8523H83.7796C84.325 28.8523 84.7758 28.7917 85.1318 28.6705C85.4955 28.5417 85.7303 28.3674 85.8364 28.1477C85.8894 28.0341 85.9159 27.9053 85.9159 27.7614C85.9159 27.6326 85.878 27.4508 85.8023 27.2159C85.7341 26.9735 85.5826 26.6591 85.3477 26.2727C85.1129 25.8788 84.825 25.4659 84.4841 25.0341C84.1432 24.6023 83.7758 24.1705 83.3818 23.7386C82.9879 23.3068 82.5826 22.8864 82.1659 22.4773C81.7493 22.0606 81.3477 21.678 80.9614 21.3295C80.575 20.9735 80.2227 20.6629 79.9046 20.3977C79.5864 20.125 79.325 19.9167 79.1205 19.7727L79.3364 17.3523L89.7341 12.7841L90.5977 14.7386L81.4955 18.7159C81.7227 18.9432 82.0144 19.2311 82.3705 19.5795C82.7265 19.9205 83.1129 20.303 83.5296 20.7273C83.9462 21.1439 84.3705 21.5909 84.8023 22.0682C85.2341 22.5379 85.6432 23.0114 86.0296 23.4886C86.4159 23.9659 86.7568 24.4356 87.0523 24.8977C87.3553 25.3523 87.5788 25.7727 87.7227 26.1591C87.8515 26.4924 87.9424 26.803 87.9955 27.0909C88.0334 27.3409 88.0523 27.5682 88.0523 27.7727C88.0523 27.8106 88.0485 27.8977 88.0409 28.0341C88.0409 28.1705 88.0144 28.3333 87.9614 28.5227C87.9159 28.7121 87.8629 28.875 87.8023 29.0114C87.719 29.2008 87.5902 29.4129 87.4159 29.6477C87.2417 29.875 86.9955 30.0909 86.6773 30.2955C86.3667 30.4924 85.9765 30.6591 85.5068 30.7955C85.0371 30.9318 84.4614 31 83.7796 31H77.1205Z" fill="black"/>
            <path d="M100.818 35.125C101.962 35.125 102.924 35.0379 103.705 34.8636C104.485 34.6894 105.102 34.4205 105.557 34.0568C105.951 33.7386 106.239 33.3333 106.42 32.8409C106.61 32.3485 106.705 31.7348 106.705 31H104.614C104.083 31 103.545 30.9205 103 30.7614C102.455 30.6023 101.958 30.3409 101.511 29.9773C101.072 29.6136 100.712 29.1402 100.432 28.5568C100.152 27.9659 100.011 27.2462 100.011 26.3977C100.011 25.8977 100.053 25.447 100.136 25.0455C100.227 24.6364 100.337 24.2727 100.466 23.9545C100.602 23.6364 100.75 23.3598 100.909 23.125C101.068 22.8902 101.223 22.6894 101.375 22.5227C101.792 22.1061 102.269 21.7841 102.807 21.5568C103.345 21.3295 103.92 21.2159 104.534 21.2159C105.072 21.2159 105.576 21.2992 106.045 21.4659C106.515 21.6326 106.936 21.8826 107.307 22.2159C108.33 23.1705 108.841 24.6667 108.841 26.7045V28.8523H110.545V31H108.841C108.841 32.0758 108.682 33 108.364 33.7727C108.053 34.553 107.568 35.2045 106.909 35.7273C106.242 36.25 105.413 36.6364 104.42 36.8864C103.436 37.1439 102.235 37.2727 100.818 37.2727V35.125ZM104.42 23.3636C103.67 23.3636 103.087 23.6288 102.67 24.1591C102.254 24.6894 102.045 25.4356 102.045 26.3977C102.045 27.375 102.341 28.053 102.932 28.4318C103.076 28.5227 103.223 28.5985 103.375 28.6591C103.527 28.7121 103.674 28.7538 103.818 28.7841C103.962 28.8068 104.091 28.8258 104.205 28.8409C104.326 28.8485 104.424 28.8523 104.5 28.8523H106.591V26.7045C106.591 26.1515 106.549 25.6856 106.466 25.3068C106.383 24.9205 106.277 24.6023 106.148 24.3523C106.019 24.1023 105.871 23.9129 105.705 23.7841C105.545 23.6477 105.386 23.5492 105.227 23.4886C105.068 23.428 104.917 23.3939 104.773 23.3864C104.629 23.3712 104.511 23.3636 104.42 23.3636ZM115.066 28.8523C115.15 28.8523 115.191 28.8826 115.191 28.9432V30.8864C115.191 30.9621 115.15 31 115.066 31H110.203C110.127 31 110.089 30.9621 110.089 30.8864V28.9432C110.089 28.8826 110.127 28.8523 110.203 28.8523H115.066ZM119.705 28.8523C119.788 28.8523 119.83 28.8826 119.83 28.9432V30.8864C119.83 30.9621 119.788 31 119.705 31H114.841C114.766 31 114.728 30.9621 114.728 30.8864V28.9432C114.728 28.8826 114.766 28.8523 114.841 28.8523H119.705ZM124.344 28.8523C124.427 28.8523 124.469 28.8826 124.469 28.9432V30.8864C124.469 30.9621 124.427 31 124.344 31H119.48C119.404 31 119.366 30.9621 119.366 30.8864V28.9432C119.366 28.8826 119.404 28.8523 119.48 28.8523H124.344ZM128.982 28.8523C129.066 28.8523 129.107 28.8826 129.107 28.9432V30.8864C129.107 30.9621 129.066 31 128.982 31H124.119C124.043 31 124.005 30.9621 124.005 30.8864V28.9432C124.005 28.8826 124.043 28.8523 124.119 28.8523H128.982ZM134.757 21.75C134.773 21.7955 134.803 21.9167 134.848 22.1136C134.894 22.3106 134.943 22.5568 134.996 22.8523C135.057 23.1402 135.121 23.4621 135.189 23.8182C135.257 24.1667 135.318 24.5227 135.371 24.8864C135.424 25.2424 135.47 25.5871 135.507 25.9205C135.545 26.2538 135.564 26.5455 135.564 26.7955C135.564 27.5227 135.443 28.1515 135.201 28.6818C134.966 29.2045 134.655 29.6402 134.269 29.9886C133.89 30.3295 133.462 30.5833 132.985 30.75C132.507 30.9167 132.026 31 131.542 31H128.644V28.8523H131.542C131.655 28.8523 131.814 28.8371 132.019 28.8068C132.231 28.7689 132.439 28.6818 132.644 28.5455C132.856 28.4091 133.038 28.2045 133.189 27.9318C133.348 27.6591 133.428 27.2803 133.428 26.7955C133.428 26.6288 133.413 26.4205 133.382 26.1705C133.36 25.9129 133.326 25.6402 133.28 25.3523C133.242 25.0568 133.197 24.7576 133.144 24.4545C133.091 24.1439 133.038 23.8523 132.985 23.5795C132.932 23.3068 132.882 23.0644 132.837 22.8523C132.792 22.6402 132.754 22.4811 132.723 22.375L134.757 21.75ZM132.746 36.8295C132.261 36.8295 131.845 36.6553 131.496 36.3068C131.155 35.9659 130.985 35.553 130.985 35.0682C130.985 34.5758 131.155 34.1553 131.496 33.8068C131.845 33.4659 132.261 33.2955 132.746 33.2955C133.231 33.2955 133.644 33.4659 133.985 33.8068C134.333 34.1553 134.507 34.5758 134.507 35.0682C134.507 35.553 134.333 35.9659 133.985 36.3068C133.644 36.6553 133.231 36.8295 132.746 36.8295ZM136.439 37.3068V35.1591H138.008C138.788 35.1591 139.462 35.0644 140.03 34.875C140.606 34.6932 141.08 34.4091 141.451 34.0227C141.83 33.6364 142.106 33.1439 142.28 32.5455C142.462 31.947 142.553 31.2348 142.553 30.4091V23.3182H144.701V30.4091C144.701 31.4924 144.557 32.4583 144.269 33.3068C143.989 34.1629 143.568 34.8864 143.008 35.4773C142.447 36.0682 141.746 36.5189 140.905 36.8295C140.072 37.1477 139.106 37.3068 138.008 37.3068H136.439ZM148.694 35.125C149.838 35.125 150.8 35.0379 151.581 34.8636C152.361 34.6894 152.978 34.4205 153.433 34.0568C153.827 33.7386 154.115 33.3333 154.296 32.8409C154.486 32.3485 154.581 31.7348 154.581 31H152.49C151.959 31 151.421 30.9205 150.876 30.7614C150.331 30.6023 149.834 30.3409 149.387 29.9773C148.948 29.6136 148.588 29.1402 148.308 28.5568C148.027 27.9659 147.887 27.2462 147.887 26.3977C147.887 25.8977 147.929 25.447 148.012 25.0455C148.103 24.6364 148.213 24.2727 148.342 23.9545C148.478 23.6364 148.626 23.3598 148.785 23.125C148.944 22.8902 149.099 22.6894 149.251 22.5227C149.668 22.1061 150.145 21.7841 150.683 21.5568C151.221 21.3295 151.796 21.2159 152.41 21.2159C152.948 21.2159 153.452 21.2992 153.921 21.4659C154.391 21.6326 154.812 21.8826 155.183 22.2159C156.206 23.1705 156.717 24.6667 156.717 26.7045V28.8523H158.421V31H156.717C156.717 32.0758 156.558 33 156.24 33.7727C155.929 34.553 155.444 35.2045 154.785 35.7273C154.118 36.25 153.289 36.6364 152.296 36.8864C151.312 37.1439 150.111 37.2727 148.694 37.2727V35.125ZM152.296 23.3636C151.546 23.3636 150.963 23.6288 150.546 24.1591C150.13 24.6894 149.921 25.4356 149.921 26.3977C149.921 27.375 150.217 28.053 150.808 28.4318C150.952 28.5227 151.099 28.5985 151.251 28.6591C151.402 28.7121 151.55 28.7538 151.694 28.7841C151.838 28.8068 151.967 28.8258 152.081 28.8409C152.202 28.8485 152.3 28.8523 152.376 28.8523H154.467V26.7045C154.467 26.1515 154.425 25.6856 154.342 25.3068C154.259 24.9205 154.152 24.6023 154.024 24.3523C153.895 24.1023 153.747 23.9129 153.581 23.7841C153.421 23.6477 153.262 23.5492 153.103 23.4886C152.944 23.428 152.793 23.3939 152.649 23.3864C152.505 23.3712 152.387 23.3636 152.296 23.3636ZM165.863 21.75C165.878 21.7955 165.908 21.9167 165.954 22.1136C165.999 22.3106 166.048 22.5568 166.101 22.8523C166.162 23.1402 166.226 23.4621 166.295 23.8182C166.363 24.1667 166.423 24.5227 166.476 24.8864C166.53 25.2424 166.575 25.5871 166.613 25.9205C166.651 26.2538 166.67 26.5455 166.67 26.7955C166.67 27.5227 166.548 28.1515 166.306 28.6818C166.071 29.2045 165.761 29.6402 165.374 29.9886C164.995 30.3295 164.567 30.5833 164.09 30.75C163.613 30.9167 163.132 31 162.647 31H157.942V28.8523H162.647C162.761 28.8523 162.92 28.8371 163.124 28.8068C163.336 28.7689 163.545 28.6818 163.749 28.5455C163.961 28.4091 164.143 28.2045 164.295 27.9318C164.454 27.6591 164.533 27.2803 164.533 26.7955C164.533 26.6288 164.518 26.4205 164.488 26.1705C164.465 25.9129 164.431 25.6402 164.386 25.3523C164.348 25.0568 164.302 24.7576 164.249 24.4545C164.196 24.1439 164.143 23.8523 164.09 23.5795C164.037 23.3068 163.988 23.0644 163.942 22.8523C163.897 22.6402 163.859 22.4811 163.829 22.375L165.863 21.75ZM165.624 19.1477C165.17 19.1477 164.783 18.9886 164.465 18.6705C164.147 18.3523 163.988 17.9697 163.988 17.5227C163.988 17.0758 164.147 16.6932 164.465 16.375C164.783 16.0568 165.17 15.8977 165.624 15.8977C166.071 15.8977 166.454 16.0568 166.772 16.375C167.09 16.6932 167.249 17.0758 167.249 17.5227C167.249 17.9697 167.09 18.3523 166.772 18.6705C166.454 18.9886 166.071 19.1477 165.624 19.1477ZM161.386 19.1477C160.939 19.1477 160.556 18.9886 160.238 18.6705C159.92 18.3523 159.761 17.9697 159.761 17.5227C159.761 17.0758 159.92 16.6932 160.238 16.375C160.556 16.0568 160.939 15.8977 161.386 15.8977C161.84 15.8977 162.226 16.0568 162.545 16.375C162.863 16.6932 163.022 17.0758 163.022 17.5227C163.022 17.9697 162.863 18.3523 162.545 18.6705C162.226 18.9886 161.84 19.1477 161.386 19.1477Z" fill="#5452F6"/>
            <path d="M30.0527 60.98C30.6018 60.98 31.0636 60.9382 31.4382 60.8545C31.8127 60.7709 32.1091 60.6418 32.3273 60.4673C32.5164 60.3145 32.6545 60.12 32.7418 59.8836C32.8327 59.6473 32.8782 59.3527 32.8782 59H31.8745C31.62 59 31.3618 58.9618 31.1 58.8855C30.8382 58.8091 30.6 58.6836 30.3855 58.5091C30.1745 58.3345 30.0018 58.1073 29.8673 57.8273C29.7327 57.5436 29.6655 57.1982 29.6655 56.7909C29.6655 56.5509 29.6855 56.3345 29.7255 56.1418C29.7691 55.9455 29.8218 55.7709 29.8836 55.6182C29.9491 55.4655 30.02 55.3327 30.0964 55.22C30.1727 55.1073 30.2473 55.0109 30.32 54.9309C30.52 54.7309 30.7491 54.5764 31.0073 54.4673C31.2655 54.3582 31.5418 54.3036 31.8364 54.3036C32.0945 54.3036 32.3364 54.3436 32.5618 54.4236C32.7873 54.5036 32.9891 54.6236 33.1673 54.7836C33.6582 55.2418 33.9036 55.96 33.9036 56.9382V59C33.9036 59.5164 33.8273 59.96 33.6745 60.3309C33.5255 60.7055 33.2927 61.0182 32.9764 61.2691C32.6564 61.52 32.2582 61.7055 31.7818 61.8255C31.3091 61.9491 30.7327 62.0109 30.0527 62.0109V60.98ZM31.8364 55.3345C31.4764 55.3345 31.1964 55.4618 30.9964 55.7164C30.7964 55.9709 30.6964 56.3291 30.6964 56.7909C30.6964 57.26 30.8382 57.5855 31.1218 57.7673C31.1909 57.8109 31.2618 57.8473 31.3345 57.8764C31.4073 57.9018 31.4782 57.9218 31.5473 57.9364C31.6164 57.9473 31.6782 57.9564 31.7327 57.9636C31.7909 57.9673 31.8382 57.9691 31.8745 57.9691H32.8782V56.9382C32.8782 56.6727 32.8582 56.4491 32.8182 56.2673C32.7782 56.0818 32.7273 55.9291 32.6655 55.8091C32.6036 55.6891 32.5327 55.5982 32.4527 55.5364C32.3764 55.4709 32.3 55.4236 32.2236 55.3945C32.1473 55.3655 32.0745 55.3491 32.0055 55.3455C31.9364 55.3382 31.88 55.3345 31.8364 55.3345ZM34.5898 62.0273V60.9964H35.3426C35.7171 60.9964 36.0408 60.9509 36.3135 60.86C36.5898 60.7727 36.8171 60.6364 36.9953 60.4509C37.1771 60.2655 37.3098 60.0291 37.3935 59.7418C37.4808 59.4545 37.5244 59.1127 37.5244 58.7164V55.3127H38.5553V58.7164C38.5553 59.2364 38.4862 59.7 38.348 60.1073C38.2135 60.5182 38.0117 60.8655 37.7426 61.1491C37.4735 61.4327 37.1371 61.6491 36.7335 61.7982C36.3335 61.9509 35.8698 62.0273 35.3426 62.0273H34.5898ZM42.0517 59.0818C41.8662 59.0818 41.6789 59.0727 41.4898 59.0545C41.3008 59.04 41.1153 59.0164 40.9335 58.9836C40.7553 58.9473 40.5826 58.9018 40.4153 58.8473C40.2517 58.7891 40.1026 58.72 39.968 58.64L39.5153 58.3836L40.028 57.4836L40.4808 57.74C40.608 57.8127 40.7644 57.8727 40.9498 57.92C41.1353 57.9636 41.3317 57.9945 41.5389 58.0127C41.7171 58.0309 41.8953 58.04 42.0735 58.04C42.1062 58.04 42.1826 58.04 42.3026 58.04C42.4226 58.0364 42.5717 58.0218 42.7498 57.9964C42.9608 57.9636 43.1335 57.9182 43.268 57.86C43.4062 57.7982 43.4935 57.7291 43.5298 57.6527C43.5444 57.6164 43.5517 57.5764 43.5517 57.5327C43.5517 57.4709 43.5335 57.3855 43.4971 57.2764C43.4608 57.1636 43.3844 57.02 43.268 56.8455L41.2935 53.8618L42.1662 53.2945C42.2135 53.3673 42.2626 53.4436 42.3135 53.5236C42.3644 53.6 42.4244 53.6909 42.4935 53.7964C42.5626 53.8982 42.6426 54.02 42.7335 54.1618C42.8244 54.3 42.9353 54.4673 43.0662 54.6636C43.1971 54.86 43.3498 55.0891 43.5244 55.3509C43.6989 55.6127 43.9026 55.9182 44.1353 56.2673C44.2262 56.4055 44.308 56.5509 44.3808 56.7036C44.4535 56.8527 44.508 57.0036 44.5444 57.1564C44.5771 57.2945 44.5935 57.4327 44.5935 57.5709C44.5935 57.5855 44.5917 57.6364 44.588 57.7236C44.5844 57.8073 44.548 57.9236 44.4789 58.0727C44.2498 58.5855 43.7226 58.9018 42.8971 59.0218C42.7698 59.04 42.6353 59.0545 42.4935 59.0655C42.3517 59.0764 42.2044 59.0818 42.0517 59.0818ZM46.0971 60.98C46.6462 60.98 47.108 60.9382 47.4826 60.8545C47.8571 60.7709 48.1535 60.6418 48.3716 60.4673C48.5607 60.3145 48.6989 60.12 48.7862 59.8836C48.8771 59.6473 48.9226 59.3527 48.9226 59H47.9189C47.6644 59 47.4062 58.9618 47.1444 58.8855C46.8826 58.8091 46.6444 58.6836 46.4298 58.5091C46.2189 58.3345 46.0462 58.1073 45.9116 57.8273C45.7771 57.5436 45.7098 57.1982 45.7098 56.7909C45.7098 56.5509 45.7298 56.3345 45.7698 56.1418C45.8135 55.9455 45.8662 55.7709 45.928 55.6182C45.9935 55.4655 46.0644 55.3327 46.1407 55.22C46.2171 55.1073 46.2916 55.0109 46.3644 54.9309C46.5644 54.7309 46.7935 54.5764 47.0516 54.4673C47.3098 54.3582 47.5862 54.3036 47.8807 54.3036C48.1389 54.3036 48.3807 54.3436 48.6062 54.4236C48.8316 54.5036 49.0335 54.6236 49.2116 54.7836C49.7026 55.2418 49.948 55.96 49.948 56.9382V57.9691H50.7662V59H49.948C49.948 59.5164 49.8716 59.96 49.7189 60.3309C49.5698 60.7055 49.3371 61.0182 49.0207 61.2691C48.7007 61.52 48.3026 61.7055 47.8262 61.8255C47.3535 61.9491 46.7771 62.0109 46.0971 62.0109V60.98ZM47.8262 55.3345C47.4662 55.3345 47.1862 55.4618 46.9862 55.7164C46.7862 55.9709 46.6862 56.3291 46.6862 56.7909C46.6862 57.26 46.828 57.5855 47.1116 57.7673C47.1807 57.8109 47.2516 57.8473 47.3244 57.8764C47.3971 57.9018 47.468 57.9218 47.5371 57.9364C47.6062 57.9473 47.668 57.9564 47.7226 57.9636C47.7807 57.9673 47.828 57.9691 47.8644 57.9691H48.868V56.9382C48.868 56.6727 48.848 56.4491 48.808 56.2673C48.768 56.0818 48.7171 55.9291 48.6553 55.8091C48.5935 55.6891 48.5226 55.5982 48.4426 55.5364C48.3662 55.4709 48.2898 55.4236 48.2135 55.3945C48.1371 55.3655 48.0644 55.3491 47.9953 55.3455C47.9262 55.3382 47.8698 55.3345 47.8262 55.3345ZM57.8999 56.8182C57.8781 56.8327 57.7835 56.8964 57.6162 57.0091C57.449 57.1218 57.2253 57.26 56.9453 57.4236C56.669 57.5836 56.3453 57.7564 55.9744 57.9418C55.6035 58.1273 55.2035 58.2982 54.7744 58.4545C54.349 58.6109 53.9035 58.7418 53.4381 58.8473C52.9726 58.9491 52.5072 59 52.0417 59H50.5472V57.9691H52.0417C52.449 57.9691 52.8599 57.9218 53.2744 57.8273C53.6926 57.7291 54.0944 57.6091 54.4799 57.4673C54.8653 57.3218 55.2272 57.1655 55.5653 56.9982C55.9035 56.8273 56.1999 56.6673 56.4544 56.5182C56.1017 56.3764 55.749 56.2382 55.3963 56.1036C55.0472 55.9691 54.7272 55.8509 54.4362 55.7491C54.1453 55.6436 53.8944 55.5582 53.6835 55.4927C53.4763 55.4273 53.3381 55.3891 53.269 55.3782C53.2072 55.3782 53.1417 55.3836 53.0726 55.3945C53.0072 55.4055 52.9417 55.4382 52.8763 55.4927C52.8108 55.5473 52.7472 55.6327 52.6853 55.7491C52.6235 55.8618 52.5653 56.0218 52.5108 56.2291L51.5126 55.9673C51.7926 54.8909 52.3817 54.3527 53.2799 54.3527C53.3017 54.3527 53.3308 54.3545 53.3672 54.3582C53.4035 54.3582 53.4563 54.3673 53.5253 54.3855C53.5944 54.4 53.6872 54.4255 53.8035 54.4618C53.9199 54.4945 54.0672 54.5418 54.2453 54.6036C54.4272 54.6655 54.6472 54.7455 54.9053 54.8436C55.1635 54.9382 55.4726 55.0564 55.8326 55.1982L57.7635 55.9127L57.8999 56.8182ZM53.029 52.9673C52.7963 52.9673 52.5963 52.8855 52.429 52.7218C52.2653 52.5545 52.1835 52.3527 52.1835 52.1164C52.1835 51.8836 52.2653 51.6855 52.429 51.5218C52.5963 51.3545 52.7963 51.2709 53.029 51.2709C53.2617 51.2709 53.4599 51.3545 53.6235 51.5218C53.7908 51.6855 53.8744 51.8836 53.8744 52.1164C53.8744 52.3527 53.7908 52.5545 53.6235 52.7218C53.4599 52.8855 53.2617 52.9673 53.029 52.9673ZM74.5457 59C74.1857 59 73.8693 58.9473 73.5966 58.8418C73.3275 58.7364 73.102 58.5836 72.9202 58.3836C72.822 58.5 72.7111 58.5982 72.5875 58.6782C72.4675 58.7545 72.342 58.8182 72.2111 58.8691C72.0838 58.9164 71.9529 58.9509 71.8184 58.9727C71.6875 58.9909 71.5602 59 71.4366 59C70.982 59 70.5893 58.8982 70.2584 58.6945V59.1527C70.2584 60.1055 70.0038 60.82 69.4948 61.2964C68.9857 61.7727 68.2238 62.0109 67.2093 62.0109H65.9275C65.3638 62.0109 64.8529 61.8891 64.3948 61.6455C63.9366 61.4018 63.5657 61.0545 63.282 60.6036C63.0857 60.2945 62.9457 59.9509 62.862 59.5727C62.7929 59.2782 62.7584 58.9691 62.7584 58.6455C62.7584 58.5509 62.7657 58.3709 62.7802 58.1055C62.7984 57.84 62.8748 57.4691 63.0093 56.9927C63.1438 56.5164 63.3311 56.0255 63.5711 55.52L64.4984 55.9727C64.2948 56.3945 64.1329 56.8 64.0129 57.1891C63.8966 57.5782 63.8238 57.9455 63.7948 58.2909C63.7838 58.4073 63.7784 58.52 63.7784 58.6291C63.7784 58.8509 63.802 59.0855 63.8493 59.3327C63.9002 59.58 64.0002 59.82 64.1493 60.0527C64.3384 60.3473 64.5857 60.5745 64.8911 60.7345C65.1966 60.8982 65.542 60.98 65.9275 60.98H67.2093C67.6275 60.98 67.9675 60.9364 68.2293 60.8491C68.4948 60.7618 68.7002 60.6382 68.8457 60.4782C68.9948 60.3182 69.0948 60.1255 69.1457 59.9C69.2002 59.6782 69.2275 59.4291 69.2275 59.1527V55.3127H70.2584V56.3764C70.2584 56.7255 70.2911 57.0055 70.3566 57.2164C70.4257 57.4236 70.5148 57.5836 70.6238 57.6964C70.7366 57.8091 70.862 57.8836 71.0002 57.92C71.142 57.9564 71.2875 57.9745 71.4366 57.9745C71.5275 57.9745 71.6311 57.9582 71.7475 57.9255C71.8638 57.8927 71.9729 57.8382 72.0748 57.7618C72.1766 57.6818 72.262 57.5764 72.3311 57.4455C72.4038 57.3145 72.4402 57.1509 72.4402 56.9545V55.3127H73.4657V57.0091C73.4729 57.34 73.5602 57.5836 73.7275 57.74C73.8984 57.8964 74.1693 57.9745 74.5402 57.9745C74.602 57.9709 74.682 57.9582 74.7802 57.9364C74.882 57.9109 74.9784 57.8636 75.0693 57.7945C75.1638 57.7218 75.2438 57.62 75.3093 57.4891C75.3784 57.3545 75.4129 57.1764 75.4129 56.9545C75.4129 56.8745 75.4057 56.7745 75.3911 56.6545C75.3802 56.5345 75.3657 56.4073 75.3475 56.2727C75.3293 56.1345 75.3075 55.9945 75.282 55.8527C75.2566 55.7073 75.2311 55.5709 75.2057 55.4436C75.1838 55.3164 75.162 55.2036 75.1402 55.1055C75.1184 55.0036 75.1002 54.9273 75.0857 54.8764L76.0675 54.5764C76.0748 54.5945 76.0875 54.6509 76.1057 54.7455C76.1275 54.8364 76.1529 54.9509 76.182 55.0891C76.2111 55.2236 76.2402 55.3745 76.2693 55.5418C76.302 55.7091 76.3311 55.8782 76.3566 56.0491C76.382 56.2164 76.402 56.38 76.4166 56.54C76.4348 56.6964 76.4439 56.8345 76.4439 56.9545C76.4439 57.3 76.3875 57.6 76.2748 57.8545C76.1657 58.1055 76.0202 58.3164 75.8384 58.4873C75.6602 58.6545 75.4566 58.7818 75.2275 58.8691C75.002 58.9527 74.7748 58.9964 74.5457 59ZM73.782 53.78C73.5638 53.78 73.3784 53.7036 73.2257 53.5509C73.0729 53.3982 72.9966 53.2145 72.9966 53C72.9966 52.7855 73.0729 52.6018 73.2257 52.4491C73.3784 52.2964 73.5638 52.22 73.782 52.22C73.9966 52.22 74.1802 52.2964 74.3329 52.4491C74.4857 52.6018 74.562 52.7855 74.562 53C74.562 53.2145 74.4857 53.3982 74.3329 53.5509C74.1802 53.7036 73.9966 53.78 73.782 53.78ZM71.7475 53.78C71.5329 53.78 71.3493 53.7036 71.1966 53.5509C71.0438 53.3982 70.9675 53.2145 70.9675 53C70.9675 52.7855 71.0438 52.6018 71.1966 52.4491C71.3493 52.2964 71.5329 52.22 71.7475 52.22C71.9657 52.22 72.1511 52.2964 72.3038 52.4491C72.4566 52.6018 72.5329 52.7855 72.5329 53C72.5329 53.2145 72.4566 53.3982 72.3038 53.5509C72.1511 53.7036 71.9657 53.78 71.7475 53.78ZM72.7729 52.1C72.5802 52.1 72.4166 52.0327 72.282 51.8982C72.1475 51.7636 72.0802 51.6 72.0802 51.4073C72.0802 51.2182 72.1475 51.0564 72.282 50.9218C72.4166 50.7873 72.5802 50.72 72.7729 50.72C72.962 50.72 73.1238 50.7873 73.2584 50.9218C73.3929 51.0564 73.4602 51.2182 73.4602 51.4073C73.4602 51.6 73.3929 51.7636 73.2584 51.8982C73.1238 52.0327 72.962 52.1 72.7729 52.1ZM78.0527 60.98C78.6018 60.98 79.0636 60.9382 79.4382 60.8545C79.8127 60.7709 80.1091 60.6418 80.3273 60.4673C80.5164 60.3145 80.6545 60.12 80.7418 59.8836C80.8327 59.6473 80.8782 59.3527 80.8782 59H79.8745C79.62 59 79.3618 58.9618 79.1 58.8855C78.8382 58.8091 78.6 58.6836 78.3855 58.5091C78.1745 58.3345 78.0018 58.1073 77.8673 57.8273C77.7327 57.5436 77.6655 57.1982 77.6655 56.7909C77.6655 56.5509 77.6855 56.3345 77.7255 56.1418C77.7691 55.9455 77.8218 55.7709 77.8836 55.6182C77.9491 55.4655 78.02 55.3327 78.0964 55.22C78.1727 55.1073 78.2473 55.0109 78.32 54.9309C78.52 54.7309 78.7491 54.5764 79.0073 54.4673C79.2655 54.3582 79.5418 54.3036 79.8364 54.3036C80.0945 54.3036 80.3364 54.3436 80.5618 54.4236C80.7873 54.5036 80.9891 54.6236 81.1673 54.7836C81.6582 55.2418 81.9036 55.96 81.9036 56.9382V59C81.9036 59.5164 81.8273 59.96 81.6745 60.3309C81.5255 60.7055 81.2927 61.0182 80.9764 61.2691C80.6564 61.52 80.2582 61.7055 79.7818 61.8255C79.3091 61.9491 78.7327 62.0109 78.0527 62.0109V60.98ZM79.8364 55.3345C79.4764 55.3345 79.1964 55.4618 78.9964 55.7164C78.7964 55.9709 78.6964 56.3291 78.6964 56.7909C78.6964 57.26 78.8382 57.5855 79.1218 57.7673C79.1909 57.8109 79.2618 57.8473 79.3345 57.8764C79.4073 57.9018 79.4782 57.9218 79.5473 57.9364C79.6164 57.9473 79.6782 57.9564 79.7327 57.9636C79.7909 57.9673 79.8382 57.9691 79.8745 57.9691H80.8782V56.9382C80.8782 56.6727 80.8582 56.4491 80.8182 56.2673C80.7782 56.0818 80.7273 55.9291 80.6655 55.8091C80.6036 55.6891 80.5327 55.5982 80.4527 55.5364C80.3764 55.4709 80.3 55.4236 80.2236 55.3945C80.1473 55.3655 80.0745 55.3491 80.0055 55.3455C79.9364 55.3382 79.88 55.3345 79.8364 55.3345ZM87.7553 59H87.5208C87.1717 59 86.8498 58.9309 86.5553 58.7927C86.5553 59.3018 86.4844 59.7564 86.3426 60.1564C86.2008 60.5564 85.9935 60.8945 85.7208 61.1709C85.448 61.4509 85.1117 61.6636 84.7117 61.8091C84.3153 61.9545 83.8589 62.0273 83.3426 62.0273H82.5898V60.9964H83.3426C83.7171 60.9964 84.0408 60.9509 84.3135 60.86C84.5898 60.7727 84.8171 60.6364 84.9953 60.4509C85.1771 60.2655 85.3098 60.0291 85.3935 59.7418C85.4808 59.4545 85.5244 59.1127 85.5244 58.7164V55.3127H86.5553V57.1182C86.5553 57.3218 86.5971 57.4818 86.6808 57.5982C86.768 57.7109 86.868 57.7945 86.9808 57.8491C87.0935 57.9036 87.2008 57.9382 87.3026 57.9527C87.408 57.9636 87.4808 57.9691 87.5208 57.9691H87.7553V59ZM87.5206 59V57.9691H89.9424C90.3497 57.9691 90.677 57.94 90.9243 57.8818C91.1752 57.8236 91.3697 57.7509 91.5079 57.6636C91.6461 57.5764 91.7388 57.4818 91.7861 57.38C91.837 57.2745 91.8679 57.1745 91.8788 57.08H91.0497C90.9552 57.08 90.8497 57.0764 90.7334 57.0691C90.617 57.0618 90.4952 57.0491 90.3679 57.0309C90.2443 57.0091 90.1188 56.9782 89.9915 56.9382C89.8643 56.8982 89.7406 56.8455 89.6206 56.78C89.5224 56.7218 89.4224 56.6491 89.3206 56.5618C89.2188 56.4745 89.1261 56.3673 89.0424 56.24C88.9624 56.1091 88.8952 55.9564 88.8406 55.7818C88.7897 55.6036 88.7643 55.3964 88.7643 55.16C88.7643 54.8655 88.8152 54.5873 88.917 54.3255C89.0188 54.06 89.1643 53.8327 89.3534 53.6436C89.5424 53.4545 89.7588 53.3109 90.0024 53.2127C90.2461 53.1145 90.5061 53.0655 90.7824 53.0655C91.0988 53.0655 91.3897 53.1327 91.6552 53.2673C91.9206 53.4018 92.1443 53.5945 92.3261 53.8455C92.5224 54.1073 92.6679 54.4309 92.7624 54.8164C92.857 55.2018 92.9043 55.6436 92.9043 56.1418V56.8945C92.9043 57.2545 92.8315 57.5745 92.6861 57.8545C92.5443 58.1345 92.3279 58.3618 92.037 58.5364C91.5534 58.8455 90.8552 59 89.9424 59H87.5206ZM90.7824 54.0964C90.6624 54.0964 90.5388 54.1182 90.4115 54.1618C90.2879 54.2018 90.1752 54.2655 90.0734 54.3527C89.9752 54.4364 89.8934 54.5455 89.8279 54.68C89.7661 54.8145 89.7352 54.9745 89.7352 55.16C89.7352 55.28 89.7479 55.3818 89.7734 55.4655C89.7988 55.5455 89.8315 55.6127 89.8715 55.6673C89.9115 55.7182 89.9534 55.76 89.997 55.7927C90.0406 55.8255 90.0824 55.8527 90.1224 55.8745C90.2279 55.9364 90.357 55.9818 90.5097 56.0109C90.6624 56.0364 90.8424 56.0491 91.0497 56.0491H91.8897C91.8824 55.6891 91.8443 55.3745 91.7752 55.1055C91.7097 54.8364 91.6188 54.6164 91.5024 54.4455C91.3279 54.2127 91.0879 54.0964 90.7824 54.0964ZM90.8697 51.7291C90.637 51.7291 90.437 51.6473 90.2697 51.4836C90.1061 51.3164 90.0243 51.1145 90.0243 50.8782C90.0243 50.6455 90.1061 50.4473 90.2697 50.2836C90.437 50.1164 90.637 50.0327 90.8697 50.0327C91.1024 50.0327 91.3006 50.1164 91.4643 50.2836C91.6315 50.4473 91.7152 50.6455 91.7152 50.8782C91.7152 51.1145 91.6315 51.3164 91.4643 51.4836C91.3006 51.6473 91.1024 51.7291 90.8697 51.7291ZM98.1387 60.98C98.6878 60.98 99.1496 60.9382 99.5241 60.8545C99.8987 60.7709 100.195 60.6418 100.413 60.4673C100.602 60.3145 100.74 60.12 100.828 59.8836C100.919 59.6473 100.964 59.3527 100.964 59H99.9605C99.7059 59 99.4478 58.9618 99.1859 58.8855C98.9241 58.8091 98.6859 58.6836 98.4714 58.5091C98.2605 58.3345 98.0878 58.1073 97.9532 57.8273C97.8187 57.5436 97.7514 57.1982 97.7514 56.7909C97.7514 56.5509 97.7714 56.3345 97.8114 56.1418C97.855 55.9455 97.9078 55.7709 97.9696 55.6182C98.035 55.4655 98.1059 55.3327 98.1823 55.22C98.2587 55.1073 98.3332 55.0109 98.4059 54.9309C98.6059 54.7309 98.835 54.5764 99.0932 54.4673C99.3514 54.3582 99.6278 54.3036 99.9223 54.3036C100.18 54.3036 100.422 54.3436 100.648 54.4236C100.873 54.5036 101.075 54.6236 101.253 54.7836C101.744 55.2418 101.99 55.96 101.99 56.9382V59C101.99 59.5164 101.913 59.96 101.76 60.3309C101.611 60.7055 101.379 61.0182 101.062 61.2691C100.742 61.52 100.344 61.7055 99.8678 61.8255C99.395 61.9491 98.8187 62.0109 98.1387 62.0109V60.98ZM99.9223 55.3345C99.5623 55.3345 99.2823 55.4618 99.0823 55.7164C98.8823 55.9709 98.7823 56.3291 98.7823 56.7909C98.7823 57.26 98.9241 57.5855 99.2078 57.7673C99.2768 57.8109 99.3478 57.8473 99.4205 57.8764C99.4932 57.9018 99.5641 57.9218 99.6332 57.9364C99.7023 57.9473 99.7641 57.9564 99.8187 57.9636C99.8768 57.9673 99.9241 57.9691 99.9605 57.9691H100.964V56.9382C100.964 56.6727 100.944 56.4491 100.904 56.2673C100.864 56.0818 100.813 55.9291 100.751 55.8091C100.69 55.6891 100.619 55.5982 100.539 55.5364C100.462 55.4709 100.386 55.4236 100.31 55.3945C100.233 55.3655 100.16 55.3491 100.091 55.3455C100.022 55.3382 99.9659 55.3345 99.9223 55.3345ZM113.373 57.9691V59H113.171C112.629 59 112.129 58.7745 111.671 58.3236C111.398 58.6909 110.92 58.9236 110.236 59.0218C110.109 59.04 109.974 59.0545 109.833 59.0655C109.691 59.0764 109.544 59.0818 109.391 59.0818C109.205 59.0818 109.018 59.0727 108.829 59.0545C108.64 59.04 108.454 59.0164 108.273 58.9836C108.094 58.9473 107.922 58.9018 107.754 58.8473C107.587 58.7891 107.436 58.7218 107.302 58.6455L106.854 58.3836L107.367 57.4836L107.82 57.7455C107.947 57.8182 108.102 57.8782 108.284 57.9255C108.469 57.9691 108.665 58 108.873 58.0182C109.029 58.0327 109.185 58.04 109.342 58.04C109.396 58.04 109.489 58.04 109.62 58.04C109.751 58.0364 109.907 58.0218 110.089 57.9964C110.3 57.9636 110.473 57.9182 110.607 57.86C110.745 57.7982 110.833 57.7291 110.869 57.6527C110.902 57.6164 110.918 57.5709 110.918 57.5164C110.918 57.48 110.905 57.4218 110.88 57.3418C110.854 57.2582 110.798 57.1491 110.711 57.0145L108.665 53.9L109.533 53.3327L111.649 56.5618C111.758 56.7182 111.867 56.88 111.976 57.0473C112.089 57.2109 112.207 57.3618 112.331 57.5C112.454 57.6345 112.584 57.7473 112.718 57.8382C112.856 57.9255 113.007 57.9691 113.171 57.9691H113.373ZM116.94 54.56C116.947 54.5818 116.961 54.64 116.983 54.7345C117.005 54.8291 117.029 54.9473 117.054 55.0891C117.083 55.2273 117.114 55.3818 117.147 55.5527C117.18 55.72 117.209 55.8909 117.234 56.0655C117.26 56.2364 117.281 56.4018 117.3 56.5618C117.318 56.7218 117.327 56.8618 117.327 56.9818C117.327 57.3309 117.269 57.6327 117.152 57.8873C117.04 58.1382 116.891 58.3473 116.705 58.5145C116.523 58.6782 116.318 58.8 116.089 58.88C115.86 58.96 115.629 59 115.396 59H113.138V57.9691H115.396C115.451 57.9691 115.527 57.9618 115.625 57.9473C115.727 57.9291 115.827 57.8873 115.925 57.8218C116.027 57.7564 116.114 57.6582 116.187 57.5273C116.263 57.3964 116.301 57.2145 116.301 56.9818C116.301 56.9018 116.294 56.8018 116.28 56.6818C116.269 56.5582 116.252 56.4273 116.231 56.2891C116.212 56.1473 116.191 56.0036 116.165 55.8582C116.14 55.7091 116.114 55.5691 116.089 55.4382C116.063 55.3073 116.04 55.1909 116.018 55.0891C115.996 54.9873 115.978 54.9109 115.963 54.86L116.94 54.56ZM116.509 61.8473C116.291 61.8473 116.105 61.7709 115.952 61.6182C115.8 61.4655 115.723 61.2818 115.723 61.0673C115.723 60.8491 115.8 60.6636 115.952 60.5109C116.105 60.3618 116.291 60.2873 116.509 60.2873C116.723 60.2873 116.907 60.3618 117.06 60.5109C117.212 60.6636 117.289 60.8491 117.289 61.0673C117.289 61.2818 117.212 61.4655 117.06 61.6182C116.907 61.7709 116.723 61.8473 116.509 61.8473ZM114.474 61.8473C114.26 61.8473 114.076 61.7709 113.923 61.6182C113.771 61.4655 113.694 61.2818 113.694 61.0673C113.694 60.8491 113.771 60.6636 113.923 60.5109C114.076 60.3618 114.26 60.2873 114.474 60.2873C114.692 60.2873 114.878 60.3618 115.031 60.5109C115.183 60.6636 115.26 60.8491 115.26 61.0673C115.26 61.2818 115.183 61.4655 115.031 61.6182C114.878 61.7709 114.692 61.8473 114.474 61.8473ZM123.322 59H123.087C122.738 59 122.416 58.9309 122.122 58.7927C122.122 59.3018 122.051 59.7564 121.909 60.1564C121.767 60.5564 121.56 60.8945 121.287 61.1709C121.014 61.4509 120.678 61.6636 120.278 61.8091C119.882 61.9545 119.425 62.0273 118.909 62.0273H118.156V60.9964H118.909C119.284 60.9964 119.607 60.9509 119.88 60.86C120.156 60.7727 120.384 60.6364 120.562 60.4509C120.744 60.2655 120.876 60.0291 120.96 59.7418C121.047 59.4545 121.091 59.1127 121.091 58.7164V55.3127H122.122V57.1182C122.122 57.3218 122.164 57.4818 122.247 57.5982C122.334 57.7109 122.434 57.7945 122.547 57.8491C122.66 57.9036 122.767 57.9382 122.869 57.9527C122.974 57.9636 123.047 57.9691 123.087 57.9691H123.322V59ZM130.451 56.8182C130.429 56.8327 130.334 56.8964 130.167 57.0091C130 57.1218 129.776 57.26 129.496 57.4236C129.22 57.5836 128.896 57.7564 128.525 57.9418C128.154 58.1273 127.754 58.2982 127.325 58.4545C126.9 58.6109 126.454 58.7418 125.989 58.8473C125.523 58.9491 125.058 59 124.592 59H123.098V57.9691H124.592C125 57.9691 125.411 57.9218 125.825 57.8273C126.243 57.7291 126.645 57.6091 127.031 57.4673C127.416 57.3218 127.778 57.1655 128.116 56.9982C128.454 56.8273 128.751 56.6673 129.005 56.5182C128.652 56.3764 128.3 56.2382 127.947 56.1036C127.598 55.9691 127.278 55.8509 126.987 55.7491C126.696 55.6436 126.445 55.5582 126.234 55.4927C126.027 55.4273 125.889 55.3891 125.82 55.3782C125.758 55.3782 125.692 55.3836 125.623 55.3945C125.558 55.4055 125.492 55.4382 125.427 55.4927C125.362 55.5473 125.298 55.6327 125.236 55.7491C125.174 55.8618 125.116 56.0218 125.062 56.2291L124.063 55.9673C124.343 54.8909 124.932 54.3527 125.831 54.3527C125.852 54.3527 125.882 54.3545 125.918 54.3582C125.954 54.3582 126.007 54.3673 126.076 54.3855C126.145 54.4 126.238 54.4255 126.354 54.4618C126.471 54.4945 126.618 54.5418 126.796 54.6036C126.978 54.6655 127.198 54.7455 127.456 54.8436C127.714 54.9382 128.023 55.0564 128.383 55.1982L130.314 55.9127L130.451 56.8182ZM125.58 52.9673C125.347 52.9673 125.147 52.8855 124.98 52.7218C124.816 52.5545 124.734 52.3527 124.734 52.1164C124.734 51.8836 124.816 51.6855 124.98 51.5218C125.147 51.3545 125.347 51.2709 125.58 51.2709C125.812 51.2709 126.011 51.3545 126.174 51.5218C126.342 51.6855 126.425 51.8836 126.425 52.1164C126.425 52.3527 126.342 52.5545 126.174 52.7218C126.011 52.8855 125.812 52.9673 125.58 52.9673ZM138.347 62.0218C137.784 62.0218 137.273 61.8982 136.815 61.6509C136.356 61.4073 135.986 61.0582 135.702 60.6036C135.506 60.2945 135.366 59.9509 135.282 59.5727C135.216 59.2818 135.184 58.9764 135.184 58.6564C135.184 58.5618 135.191 58.3836 135.206 58.1218C135.22 57.8564 135.295 57.4891 135.429 57.02C135.564 56.5473 135.751 56.06 135.991 55.5582L136.918 56C136.715 56.4218 136.553 56.8273 136.433 57.2164C136.316 57.6018 136.244 57.9673 136.215 58.3127C136.207 58.4291 136.204 58.5418 136.204 58.6509C136.204 58.8691 136.227 59.1 136.275 59.3436C136.322 59.5909 136.42 59.8309 136.569 60.0636C136.758 60.3582 137.006 60.5855 137.311 60.7455C137.616 60.9091 137.962 60.9909 138.347 60.9909H139.629C140.047 60.9909 140.387 60.9455 140.649 60.8545C140.915 60.7673 141.12 60.6436 141.266 60.4836C141.415 60.3236 141.515 60.1291 141.566 59.9C141.62 59.6745 141.647 59.4236 141.647 59.1473V55.3127H142.678V57.0091C142.682 57.1545 142.707 57.2873 142.755 57.4073C142.806 57.5236 142.873 57.6236 142.956 57.7073C143.04 57.7909 143.14 57.8564 143.256 57.9036C143.376 57.9473 143.509 57.9691 143.655 57.9691H143.867V59H143.655C143.298 59 142.973 58.9218 142.678 58.7655V59.1473C142.678 60.1073 142.424 60.8255 141.915 61.3018C141.406 61.7818 140.644 62.0218 139.629 62.0218H138.347ZM139.307 55.7491C139.075 55.7491 138.875 55.6673 138.707 55.5036C138.544 55.3364 138.462 55.1345 138.462 54.8982C138.462 54.6655 138.544 54.4673 138.707 54.3036C138.875 54.1364 139.075 54.0527 139.307 54.0527C139.54 54.0527 139.738 54.1364 139.902 54.3036C140.069 54.4673 140.153 54.6655 140.153 54.8982C140.153 55.1345 140.069 55.3364 139.902 55.5036C139.738 55.6673 139.54 55.7491 139.307 55.7491ZM147.444 54.56C147.451 54.5818 147.465 54.64 147.487 54.7345C147.509 54.8291 147.533 54.9473 147.558 55.0891C147.587 55.2273 147.618 55.3818 147.651 55.5527C147.684 55.72 147.713 55.8909 147.738 56.0655C147.764 56.2364 147.785 56.4018 147.804 56.5618C147.822 56.7218 147.831 56.8618 147.831 56.9818C147.831 57.3309 147.773 57.6327 147.656 57.8873C147.544 58.1382 147.394 58.3473 147.209 58.5145C147.027 58.6782 146.822 58.8 146.593 58.88C146.364 58.96 146.133 59 145.9 59H143.642V57.9691H145.9C145.954 57.9691 146.031 57.9618 146.129 57.9473C146.231 57.9291 146.331 57.8873 146.429 57.8218C146.531 57.7564 146.618 57.6582 146.691 57.5273C146.767 57.3964 146.805 57.2145 146.805 56.9818C146.805 56.9018 146.798 56.8018 146.784 56.6818C146.773 56.5582 146.756 56.4273 146.734 56.2891C146.716 56.1473 146.694 56.0036 146.669 55.8582C146.644 55.7091 146.618 55.5691 146.593 55.4382C146.567 55.3073 146.544 55.1909 146.522 55.0891C146.5 54.9873 146.482 54.9109 146.467 54.86L147.444 54.56ZM147.013 61.8473C146.794 61.8473 146.609 61.7709 146.456 61.6182C146.304 61.4655 146.227 61.2818 146.227 61.0673C146.227 60.8491 146.304 60.6636 146.456 60.5109C146.609 60.3618 146.794 60.2873 147.013 60.2873C147.227 60.2873 147.411 60.3618 147.564 60.5109C147.716 60.6636 147.793 60.8491 147.793 61.0673C147.793 61.2818 147.716 61.4655 147.564 61.6182C147.411 61.7709 147.227 61.8473 147.013 61.8473ZM144.978 61.8473C144.764 61.8473 144.58 61.7709 144.427 61.6182C144.274 61.4655 144.198 61.2818 144.198 61.0673C144.198 60.8491 144.274 60.6636 144.427 60.5109C144.58 60.3618 144.764 60.2873 144.978 60.2873C145.196 60.2873 145.382 60.3618 145.534 60.5109C145.687 60.6636 145.764 60.8491 145.764 61.0673C145.764 61.2818 145.687 61.4655 145.534 61.6182C145.382 61.7709 145.196 61.8473 144.978 61.8473ZM149.981 57.0036L149.654 51.4345L150.674 51.32L151.007 57.0036H149.981ZM155.965 57.9691V59H155.687C155.356 59 155.063 58.9527 154.809 58.8582C154.558 58.7636 154.356 58.6218 154.203 58.4327C153.825 58.8109 153.265 59 152.523 59H149.305V57.9691H152.523C152.785 57.9691 152.992 57.9436 153.145 57.8927C153.298 57.8382 153.412 57.7727 153.489 57.6964C153.569 57.6164 153.62 57.5291 153.641 57.4345C153.667 57.3364 153.68 57.2436 153.68 57.1564V51.2109H154.705V57.1182C154.705 57.2527 154.725 57.3673 154.765 57.4618C154.805 57.5564 154.856 57.6364 154.918 57.7018C154.983 57.7636 155.054 57.8127 155.13 57.8491C155.21 57.8855 155.287 57.9127 155.36 57.9309C155.432 57.9491 155.498 57.96 155.556 57.9636C155.614 57.9673 155.658 57.9691 155.687 57.9691H155.965ZM158.657 54.56C158.665 54.5818 158.679 54.64 158.701 54.7345C158.723 54.8291 158.747 54.9473 158.772 55.0891C158.801 55.2273 158.832 55.3818 158.865 55.5527C158.897 55.72 158.927 55.8909 158.952 56.0655C158.977 56.2364 158.999 56.4018 159.017 56.5618C159.036 56.7218 159.045 56.8618 159.045 56.9818C159.045 57.3309 158.987 57.6327 158.87 57.8873C158.757 58.1382 158.608 58.3473 158.423 58.5145C158.241 58.6782 158.036 58.8 157.807 58.88C157.577 58.96 157.347 59 157.114 59H155.723V57.9691H157.114C157.168 57.9691 157.245 57.9618 157.343 57.9473C157.445 57.9291 157.545 57.8873 157.643 57.8218C157.745 57.7564 157.832 57.6582 157.905 57.5273C157.981 57.3964 158.019 57.2145 158.019 56.9818C158.019 56.9018 158.012 56.8018 157.997 56.6818C157.987 56.5582 157.97 56.4273 157.948 56.2891C157.93 56.1473 157.908 56.0036 157.883 55.8582C157.857 55.7091 157.832 55.5691 157.807 55.4382C157.781 55.3073 157.757 55.1909 157.736 55.0891C157.714 54.9873 157.696 54.9109 157.681 54.86L158.657 54.56ZM157.779 53.1527C157.547 53.1527 157.347 53.0709 157.179 52.9073C157.016 52.74 156.934 52.5382 156.934 52.3018C156.934 52.0691 157.016 51.8709 157.179 51.7073C157.347 51.54 157.547 51.4564 157.779 51.4564C158.012 51.4564 158.21 51.54 158.374 51.7073C158.541 51.8709 158.625 52.0691 158.625 52.3018C158.625 52.5382 158.541 52.74 158.374 52.9073C158.21 53.0709 158.012 53.1527 157.779 53.1527ZM163.141 59H162.11V52.0345H163.141V59ZM164.925 51.1564H162.29C162.061 51.1564 161.868 51.1655 161.712 51.1836C161.556 51.2018 161.423 51.2382 161.314 51.2927C161.208 51.3473 161.121 51.4255 161.052 51.5273C160.987 51.6291 160.928 51.7636 160.877 51.9309L160.016 51.6745C160.183 51.0891 160.487 50.6873 160.927 50.4691C161.112 50.3745 161.317 50.3145 161.543 50.2891C161.768 50.26 162.017 50.2455 162.29 50.2455H164.925V51.1564ZM175.677 59H175.541C174.959 59 174.45 58.8764 174.014 58.6291C173.581 58.3782 173.248 58.0291 173.015 57.5818C172.899 57.7418 172.759 57.8818 172.595 58.0018C172.435 58.1182 172.254 58.2218 172.05 58.3127C171.934 58.36 171.799 58.3982 171.646 58.4273C171.494 58.4564 171.332 58.4709 171.161 58.4709C170.99 58.4709 170.814 58.4509 170.632 58.4109C170.454 58.3709 170.279 58.3036 170.108 58.2091C169.846 58.0709 169.635 57.8891 169.475 57.6636C169.319 57.4345 169.215 57.1655 169.164 56.8564C169.139 56.7145 169.126 56.5745 169.126 56.4364C169.126 56.2036 169.172 55.9436 169.263 55.6564C169.357 55.3691 169.546 55.0782 169.83 54.7836C170.328 54.2745 171.032 53.8855 171.941 53.6164L171.837 53.0273L172.841 52.8145C172.928 53.1782 173.004 53.5018 173.07 53.7855C173.135 54.0655 173.194 54.3182 173.244 54.5436C173.255 54.5873 173.272 54.66 173.294 54.7618C173.319 54.8636 173.348 54.9818 173.381 55.1164C173.414 55.2473 173.448 55.3891 173.484 55.5418C173.521 55.6945 173.557 55.8436 173.594 55.9891C173.63 56.1345 173.664 56.2709 173.697 56.3982C173.73 56.5255 173.759 56.6309 173.784 56.7145C173.857 56.9873 173.964 57.2073 174.106 57.3745C174.248 57.5382 174.403 57.6655 174.57 57.7564C174.737 57.8436 174.906 57.9018 175.077 57.9309C175.252 57.9564 175.406 57.9691 175.541 57.9691H175.677V59ZM172.214 54.6091C171.854 54.7145 171.535 54.84 171.259 54.9855C170.983 55.1309 170.754 55.2927 170.572 55.4709C170.394 55.6455 170.266 55.8345 170.19 56.0382C170.139 56.1727 170.114 56.3109 170.114 56.4527C170.114 56.5255 170.121 56.6 170.135 56.6764C170.161 56.8291 170.215 56.9582 170.299 57.0636C170.383 57.1655 170.481 57.2473 170.594 57.3091C170.674 57.3564 170.761 57.3909 170.855 57.4127C170.95 57.4309 171.044 57.44 171.139 57.44H171.194C171.27 57.44 171.348 57.4345 171.428 57.4236C171.508 57.4091 171.583 57.3873 171.652 57.3582C172.11 57.1691 172.377 56.8255 172.454 56.3273C172.468 56.2109 172.475 56.1018 172.475 56C172.475 55.9455 172.47 55.8691 172.459 55.7709C172.448 55.6727 172.437 55.5982 172.426 55.5473L172.214 54.6091ZM178.392 54.56C178.399 54.5818 178.414 54.64 178.435 54.7345C178.457 54.8291 178.481 54.9473 178.506 55.0891C178.535 55.2273 178.566 55.3818 178.599 55.5527C178.632 55.72 178.661 55.8909 178.686 56.0655C178.712 56.2364 178.734 56.4018 178.752 56.5618C178.77 56.7218 178.779 56.8618 178.779 56.9818C178.779 57.3309 178.721 57.6327 178.605 57.8873C178.492 58.1382 178.343 58.3473 178.157 58.5145C177.975 58.6782 177.77 58.8 177.541 58.88C177.312 58.96 177.081 59 176.848 59H175.457V57.9691H176.848C176.903 57.9691 176.979 57.9618 177.077 57.9473C177.179 57.9291 177.279 57.8873 177.377 57.8218C177.479 57.7564 177.566 57.6582 177.639 57.5273C177.715 57.3964 177.754 57.2145 177.754 56.9818C177.754 56.9018 177.746 56.8018 177.732 56.6818C177.721 56.5582 177.705 56.4273 177.683 56.2891C177.665 56.1473 177.643 56.0036 177.617 55.8582C177.592 55.7091 177.566 55.5691 177.541 55.4382C177.515 55.3073 177.492 55.1909 177.47 55.0891C177.448 54.9873 177.43 54.9109 177.415 54.86L178.392 54.56ZM177.514 53.1527C177.281 53.1527 177.081 53.0709 176.914 52.9073C176.75 52.74 176.668 52.5382 176.668 52.3018C176.668 52.0691 176.75 51.8709 176.914 51.7073C177.081 51.54 177.281 51.4564 177.514 51.4564C177.746 51.4564 177.945 51.54 178.108 51.7073C178.275 51.8709 178.359 52.0691 178.359 52.3018C178.359 52.5382 178.275 52.74 178.108 52.9073C177.945 53.0709 177.746 53.1527 177.514 53.1527ZM182.668 59C182.286 58.9964 181.97 58.9709 181.719 58.9236C181.472 58.8727 181.261 58.8018 181.086 58.7109C180.916 58.6164 180.777 58.5 180.672 58.3618C180.57 58.22 180.49 58.0564 180.432 57.8709C180.374 57.6818 180.336 57.4709 180.317 57.2382C180.299 57.0055 180.29 56.7473 180.29 56.4636V51.2164H181.321V56.4636C181.321 56.78 181.33 57.0364 181.348 57.2327C181.37 57.4291 181.423 57.5818 181.506 57.6909C181.594 57.7964 181.723 57.8691 181.894 57.9091C182.068 57.9455 182.326 57.9655 182.668 57.9691V59ZM186.408 58.2309C186.433 58.2309 186.468 58.2291 186.512 58.2255C186.559 58.2218 186.608 58.2073 186.659 58.1818C186.713 58.1564 186.766 58.1182 186.817 58.0673C186.872 58.0127 186.919 57.9382 186.959 57.8436C187.003 57.7455 187.037 57.6218 187.062 57.4727C187.092 57.32 187.106 57.1345 187.106 56.9164C187.106 56.8764 187.102 56.8127 187.095 56.7255C187.088 56.6382 187.072 56.5418 187.046 56.4364C187.021 56.3273 186.983 56.2164 186.932 56.1036C186.884 55.9909 186.819 55.8873 186.735 55.7927C186.652 55.6982 186.55 55.6218 186.43 55.5636C186.31 55.5018 186.164 55.4709 185.993 55.4709C185.833 55.4709 185.697 55.5 185.584 55.5582C185.475 55.6127 185.382 55.6891 185.306 55.7873C185.23 55.8855 185.166 56.0018 185.115 56.1364C185.064 56.2673 185.017 56.4109 184.973 56.5673C184.93 56.72 184.886 56.8818 184.842 57.0527C184.799 57.22 184.748 57.3873 184.69 57.5545C184.879 57.6491 185.053 57.7382 185.213 57.8218C185.373 57.9055 185.523 57.9782 185.661 58.04C185.799 58.0982 185.928 58.1455 186.048 58.1818C186.172 58.2145 186.292 58.2309 186.408 58.2309ZM185.993 54.4455C186.35 54.4455 186.659 54.5145 186.921 54.6527C187.186 54.7873 187.406 54.9691 187.581 55.1982C187.755 55.4273 187.884 55.6909 187.968 55.9891C188.055 56.2873 188.099 56.5964 188.099 56.9164C188.099 57.2691 188.068 57.5727 188.006 57.8273C187.948 58.0818 187.87 58.2964 187.772 58.4709C187.673 58.6418 187.563 58.78 187.439 58.8855C187.319 58.9909 187.195 59.0709 187.068 59.1255C186.944 59.18 186.824 59.2164 186.708 59.2345C186.592 59.2527 186.492 59.2618 186.408 59.2618C186.23 59.2618 186.059 59.2436 185.895 59.2073C185.732 59.1709 185.564 59.1182 185.393 59.0491C185.223 58.9836 185.043 58.9018 184.853 58.8036C184.668 58.7055 184.463 58.5945 184.237 58.4709C183.939 58.8236 183.555 59 183.086 59H182.459V57.9691H183.086C183.224 57.9691 183.337 57.9182 183.424 57.8164C183.515 57.7145 183.593 57.5818 183.659 57.4182C183.724 57.2545 183.784 57.0673 183.839 56.8564C183.893 56.6455 183.955 56.4291 184.024 56.2073C184.097 55.9855 184.182 55.7691 184.281 55.5582C184.379 55.3473 184.502 55.16 184.652 54.9964C184.804 54.8327 184.988 54.7 185.202 54.5982C185.421 54.4964 185.684 54.4455 185.993 54.4455ZM192.289 59C191.908 58.9964 191.591 58.9709 191.34 58.9236C191.093 58.8727 190.882 58.8018 190.708 58.7109C190.537 58.6164 190.398 58.5 190.293 58.3618C190.191 58.22 190.111 58.0564 190.053 57.8709C189.995 57.6818 189.957 57.4709 189.938 57.2382C189.92 57.0055 189.911 56.7473 189.911 56.4636V51.2164H190.942V56.4636C190.942 56.78 190.951 57.0364 190.969 57.2327C190.991 57.4291 191.044 57.5818 191.128 57.6909C191.215 57.7964 191.344 57.8691 191.515 57.9091C191.689 57.9455 191.948 57.9655 192.289 57.9691V59ZM196.329 58.9891C195.987 58.9891 195.684 58.94 195.418 58.8418C195.153 58.74 194.929 58.5945 194.747 58.4055C194.558 58.6091 194.338 58.76 194.087 58.8582C193.836 58.9527 193.584 59 193.329 59H192.075V57.9691H193.329C193.384 57.9691 193.462 57.9618 193.564 57.9473C193.665 57.9291 193.765 57.8873 193.864 57.8218C193.962 57.7527 194.047 57.6509 194.12 57.5164C194.196 57.3818 194.235 57.1982 194.235 56.9655V55.3127H195.265V56.9436C195.265 57.2964 195.347 57.5545 195.511 57.7182C195.678 57.8818 195.951 57.9636 196.329 57.9636C196.384 57.9636 196.46 57.9545 196.558 57.9364C196.66 57.9145 196.76 57.8691 196.858 57.8C196.96 57.7309 197.047 57.6291 197.12 57.4945C197.196 57.36 197.235 57.1764 197.235 56.9436V55.3127H198.26V56.9436C198.26 57.2964 198.345 57.5564 198.516 57.7236C198.687 57.8909 198.962 57.9745 199.34 57.9745C199.398 57.9745 199.476 57.9636 199.575 57.9418C199.673 57.9164 199.769 57.8673 199.864 57.7945C199.962 57.7218 200.045 57.6182 200.115 57.4836C200.184 57.3491 200.218 57.1691 200.218 56.9436C200.218 56.8636 200.211 56.7636 200.196 56.6436C200.185 56.5236 200.169 56.3945 200.147 56.2564C200.129 56.1182 200.107 55.9782 200.082 55.8364C200.056 55.6909 200.031 55.5564 200.005 55.4327C199.98 55.3055 199.956 55.1927 199.935 55.0945C199.913 54.9927 199.895 54.9182 199.88 54.8709L200.856 54.56C200.864 54.5818 200.878 54.64 200.9 54.7345C200.922 54.8255 200.947 54.94 200.976 55.0782C201.005 55.2127 201.035 55.3636 201.064 55.5309C201.096 55.6982 201.125 55.8673 201.151 56.0382C201.18 56.2055 201.204 56.3691 201.222 56.5291C201.24 56.6855 201.249 56.8236 201.249 56.9436C201.249 57.2891 201.193 57.5909 201.08 57.8491C200.967 58.1036 200.82 58.3164 200.638 58.4873C200.46 58.6545 200.256 58.7818 200.027 58.8691C199.798 58.9527 199.569 58.9964 199.34 59C198.991 59 198.682 58.9491 198.413 58.8473C198.147 58.7418 197.922 58.5909 197.736 58.3945C197.547 58.5945 197.327 58.7436 197.076 58.8418C196.829 58.94 196.58 58.9891 196.329 58.9891Z" fill="#808080"/>
            <line x1="0.25" y1="1.09278e-08" x2="0.249997" y2="72" stroke="#808080" stroke-width="0.5"/>
        </svg>